<svg width="33" height="36" viewBox="0 0 33 36" fill="none" xmlns="http://www.w3.org/2000/svg">
<rect x="0.847656" width="32" height="32" rx="8" fill="#00D448" fill-opacity="0.2"/>
<g filter="url(#filter0_d_3150_41523)">
<path fill-rule="evenodd" clip-rule="evenodd" d="M12.5127 7.5C9.98266 7.5 8.34766 9.233 8.34766 11.916V20.084C8.34766 22.767 9.98266 24.5 12.5127 24.5H21.1807C23.7117 24.5 25.3477 22.767 25.3477 20.084V11.916C25.3477 9.233 23.7117 7.5 21.1817 7.5H12.5127ZM21.1807 26H12.5127C9.12366 26 6.84766 23.622 6.84766 20.084V11.916C6.84766 8.378 9.12366 6 12.5127 6H21.1817C24.5707 6 26.8477 8.378 26.8477 11.916V20.084C26.8477 23.622 24.5707 26 21.1807 26Z" fill="#00D448"/>
<path fill-rule="evenodd" clip-rule="evenodd" d="M15.6609 19.1232C15.4699 19.1232 15.2769 19.0502 15.1309 18.9032L12.7569 16.5302C12.4639 16.2372 12.4639 15.7632 12.7569 15.4702C13.0499 15.1772 13.5239 15.1772 13.8169 15.4702L15.6609 17.3122L19.8769 13.0972C20.1699 12.8042 20.6439 12.8042 20.9369 13.0972C21.2299 13.3902 21.2299 13.8642 20.9369 14.1572L16.1909 18.9032C16.0449 19.0502 15.8529 19.1232 15.6609 19.1232Z" fill="#00D448"/>
</g>
<defs>
<filter id="filter0_d_3150_41523" x="0.847656" y="4" width="32" height="32" filterUnits="userSpaceOnUse" color-interpolation-filters="sRGB">
<feFlood flood-opacity="0" result="BackgroundImageFix"/>
<feColorMatrix in="SourceAlpha" type="matrix" values="0 0 0 0 0 0 0 0 0 0 0 0 0 0 0 0 0 0 127 0" result="hardAlpha"/>
<feOffset dy="4"/>
<feGaussianBlur stdDeviation="2"/>
<feComposite in2="hardAlpha" operator="out"/>
<feColorMatrix type="matrix" values="0 0 0 0 0 0 0 0 0 0 0 0 0 0 0 0 0 0 0.25 0"/>
<feBlend mode="normal" in2="BackgroundImageFix" result="effect1_dropShadow_3150_41523"/>
<feBlend mode="normal" in="SourceGraphic" in2="effect1_dropShadow_3150_41523" result="shape"/>
</filter>
</defs>
</svg>
