<svg width="33" height="32" viewBox="0 0 33 32" fill="none" xmlns="http://www.w3.org/2000/svg">
<rect x="0.847656" width="32" height="32" rx="8" fill="#FFBF29" fill-opacity="0.2"/>
<mask id="mask0_3150_41518" style="mask-type:alpha" maskUnits="userSpaceOnUse" x="7" y="6" width="18" height="20">
<path fillRule="evenodd" clipRule="evenodd" d="M7.84766 6.01172H24.8998V25.8652H7.84766V6.01172Z" fill="white"/>
</mask>
<g mask="url(#mask0_3150_41518)">
<path fillRule="evenodd" clipRule="evenodd" d="M12.4207 7.51172C10.7637 7.51172 9.38772 8.85372 9.34872 10.5087V21.2277C9.31272 22.9287 10.6527 24.3287 12.3377 24.3657H20.4207C22.0897 24.3057 23.4107 22.9287 23.3997 21.2327V12.3397L18.7657 7.51172H12.4327H12.4207ZM12.4327 25.8657H12.3067C9.79472 25.8117 7.79472 23.7237 7.84872 21.2117V10.4907C7.90772 8.00972 9.95572 6.01172 12.4177 6.01172H12.4357H19.0847C19.2887 6.01172 19.4837 6.09472 19.6257 6.24172L24.6917 11.5187C24.8247 11.6577 24.8997 11.8447 24.8997 12.0377V21.2277C24.9157 23.7367 22.9597 25.7757 20.4467 25.8657H12.4327Z" fill="#FFBF29"/>
</g>
<path fillRule="evenodd" clipRule="evenodd" d="M24.1462 12.9845H21.3922C19.5612 12.9795 18.0742 11.4875 18.0742 9.65949V6.75049C18.0742 6.33649 18.4102 6.00049 18.8242 6.00049C19.2382 6.00049 19.5742 6.33649 19.5742 6.75049V9.65949C19.5742 10.6635 20.3902 11.4815 21.3942 11.4845H24.1462C24.5602 11.4845 24.8962 11.8205 24.8962 12.2345C24.8962 12.6485 24.5602 12.9845 24.1462 12.9845Z" fill="#FFBF29"/>
<path fillRule="evenodd" clipRule="evenodd" d="M15.9883 20.7002C15.5743 20.7002 15.2383 20.3642 15.2383 19.9502V13.9092C15.2383 13.4952 15.5743 13.1592 15.9883 13.1592C16.4023 13.1592 16.7383 13.4952 16.7383 13.9092V19.9502C16.7383 20.3642 16.4023 20.7002 15.9883 20.7002Z" fill="#FFBF29"/>
<path fillRule="evenodd" clipRule="evenodd" d="M13.6443 17.0147C13.4533 17.0147 13.2613 16.9417 13.1153 16.7957C12.8223 16.5037 12.8203 16.0297 13.1133 15.7357L15.4573 13.3797C15.7393 13.0967 16.2393 13.0967 16.5203 13.3797L18.8663 15.7357C19.1583 16.0297 19.1573 16.5037 18.8643 16.7957C18.5703 17.0877 18.0953 17.0877 17.8033 16.7937L15.9893 14.9717L14.1753 16.7937C14.0293 16.9417 13.8363 17.0147 13.6443 17.0147Z" fill="#FFBF29"/>
</svg>
