<svg width="17" height="17" viewBox="0 0 17 17" fill="none" xmlns="http://www.w3.org/2000/svg">
<path fillRule="evenodd" clipRule="evenodd" d="M8.33594 10.9276C8.05994 10.9276 7.83594 10.7036 7.83594 10.4276V5.54297C7.83594 5.26697 8.05994 5.04297 8.33594 5.04297C8.61194 5.04297 8.83594 5.26697 8.83594 5.54297V10.4276C8.83594 10.7036 8.61194 10.9276 8.33594 10.9276Z" fill="#4E5152"/>
<path fillRule="evenodd" clipRule="evenodd" d="M10.7812 8.48486H5.89258C5.61591 8.48486 5.39258 8.26086 5.39258 7.98486C5.39258 7.70886 5.61591 7.48486 5.89258 7.48486H10.7812C11.0572 7.48486 11.2812 7.70886 11.2812 7.98486C11.2812 8.26086 11.0572 8.48486 10.7812 8.48486Z" fill="#4E5152"/>
<path fillRule="evenodd" clipRule="evenodd" d="M5.21259 1.82471C3.36459 1.82471 2.16992 3.08937 2.16992 5.04804V10.9347C2.16992 12.8934 3.36459 14.158 5.21259 14.158H11.4606C13.3093 14.158 14.5033 12.8934 14.5033 10.9347V5.04804C14.5033 3.08937 13.3093 1.82471 11.4606 1.82471H5.21259ZM11.4606 15.158H5.21259C2.79459 15.158 1.16992 13.4607 1.16992 10.9347V5.04804C1.16992 2.52204 2.79459 0.824707 5.21259 0.824707H11.4606C13.8786 0.824707 15.5033 2.52204 15.5033 5.04804V10.9347C15.5033 13.4607 13.8786 15.158 11.4606 15.158Z" fill="#4E5152"/>
</svg>
