<svg width="16" height="16" viewBox="0 0 16 16" fill="none" xmlns="http://www.w3.org/2000/svg">
<path fill-rule="evenodd" clip-rule="evenodd" d="M8.16456 14.6671C7.26123 14.6671 6.38056 14.6571 5.50923 14.6391C4.39456 14.6171 3.62323 13.8944 3.49723 12.7531C3.28723 10.8598 2.92789 6.39709 2.92456 6.35243C2.90189 6.07709 3.10723 5.83576 3.38256 5.81376C3.65389 5.80643 3.89923 5.99709 3.92123 6.27176C3.92456 6.31709 4.28323 10.7644 4.49123 12.6431C4.56256 13.2918 4.91256 13.6264 5.52989 13.6391C7.19656 13.6744 8.89723 13.6764 10.7306 13.6431C11.3866 13.6304 11.7412 13.3024 11.8146 12.6384C12.0212 10.7758 12.3812 6.31709 12.3852 6.27176C12.4072 5.99709 12.6506 5.80509 12.9232 5.81376C13.1986 5.83643 13.4039 6.07709 13.3819 6.35243C13.3779 6.39776 13.0166 10.8718 12.8086 12.7484C12.6792 13.9131 11.9099 14.6218 10.7486 14.6431C9.8599 14.6584 9.00256 14.6671 8.16456 14.6671" fill="#ED4E3A"/>
<path fill-rule="evenodd" clip-rule="evenodd" d="M13.8053 4.66016H2.5C2.224 4.66016 2 4.43616 2 4.16016C2 3.88416 2.224 3.66016 2.5 3.66016H13.8053C14.0813 3.66016 14.3053 3.88416 14.3053 4.16016C14.3053 4.43616 14.0813 4.66016 13.8053 4.66016" fill="#ED4E3A"/>
<path fill-rule="evenodd" clip-rule="evenodd" d="M11.6269 4.65998C10.8682 4.65998 10.2096 4.11932 10.0602 3.37532L9.89822 2.56465C9.86422 2.44132 9.72356 2.33398 9.56356 2.33398H6.74156C6.58156 2.33398 6.44089 2.44132 6.40022 2.59532L6.24489 3.37532C6.09622 4.11932 5.43689 4.65998 4.67822 4.65998C4.40222 4.65998 4.17822 4.43598 4.17822 4.15998C4.17822 3.88398 4.40222 3.65998 4.67822 3.65998C4.96222 3.65998 5.20889 3.45732 5.26489 3.17865L5.42689 2.36798C5.59156 1.74665 6.12956 1.33398 6.74156 1.33398H9.56356C10.1756 1.33398 10.7136 1.74665 10.8716 2.33798L11.0409 3.17865C11.0962 3.45732 11.3429 3.65998 11.6269 3.65998C11.9029 3.65998 12.1269 3.88398 12.1269 4.15998C12.1269 4.43598 11.9029 4.65998 11.6269 4.65998" fill="#ED4E3A"/>
</svg>
