<svg width="16" height="16" viewBox="0 0 16 16" fill="none" xmlns="http://www.w3.org/2000/svg">
<path fill-rule="evenodd" clip-rule="evenodd" d="M8.16432 14.6671C7.26098 14.6671 6.38032 14.6571 5.50898 14.6391C4.39432 14.6171 3.62298 13.8944 3.49698 12.7531C3.28698 10.8598 2.92765 6.39709 2.92432 6.35243C2.90165 6.07709 3.10698 5.83576 3.38232 5.81376C3.65365 5.80643 3.89898 5.99709 3.92098 6.27176C3.92432 6.31709 4.28298 10.7644 4.49098 12.6431C4.56232 13.2918 4.91232 13.6264 5.52965 13.6391C7.19632 13.6744 8.89698 13.6764 10.7303 13.6431C11.3863 13.6304 11.741 13.3024 11.8143 12.6384C12.021 10.7758 12.381 6.31709 12.385 6.27176C12.407 5.99709 12.6503 5.80509 12.923 5.81376C13.1983 5.83643 13.4037 6.07709 13.3817 6.35243C13.3777 6.39776 13.0163 10.8718 12.8083 12.7484C12.679 13.9131 11.9097 14.6218 10.7483 14.6431C9.85965 14.6584 9.00232 14.6671 8.16432 14.6671Z" fill="#ED4E3A"/>
<path fill-rule="evenodd" clip-rule="evenodd" d="M13.8053 4.66016H2.5C2.224 4.66016 2 4.43616 2 4.16016C2 3.88416 2.224 3.66016 2.5 3.66016H13.8053C14.0813 3.66016 14.3053 3.88416 14.3053 4.16016C14.3053 4.43616 14.0813 4.66016 13.8053 4.66016Z" fill="#ED4E3A"/>
<path fill-rule="evenodd" clip-rule="evenodd" d="M11.6269 4.65998C10.8682 4.65998 10.2096 4.11932 10.0602 3.37532L9.89822 2.56465C9.86422 2.44132 9.72356 2.33398 9.56356 2.33398H6.74156C6.58156 2.33398 6.44089 2.44132 6.40022 2.59532L6.24489 3.37532C6.09622 4.11932 5.43689 4.65998 4.67822 4.65998C4.40222 4.65998 4.17822 4.43598 4.17822 4.15998C4.17822 3.88398 4.40222 3.65998 4.67822 3.65998C4.96222 3.65998 5.20889 3.45732 5.26489 3.17865L5.42689 2.36798C5.59156 1.74665 6.12956 1.33398 6.74156 1.33398H9.56356C10.1756 1.33398 10.7136 1.74665 10.8716 2.33798L11.0409 3.17865C11.0962 3.45732 11.3429 3.65998 11.6269 3.65998C11.9029 3.65998 12.1269 3.88398 12.1269 4.15998C12.1269 4.43598 11.9029 4.65998 11.6269 4.65998Z" fill="#ED4E3A"/>
</svg>
