<svg width="17" height="16" viewBox="0 0 17 16" fill="none" xmlns="http://www.w3.org/2000/svg">
<path fill-rule="evenodd" clip-rule="evenodd" d="M8.66456 14.6671C7.76123 14.6671 6.88056 14.6571 6.00923 14.6391C4.89456 14.6171 4.12323 13.8944 3.99723 12.7531C3.78723 10.8598 3.42789 6.39709 3.42456 6.35243C3.40189 6.07709 3.60723 5.83576 3.88256 5.81376C4.15389 5.80643 4.39923 5.99709 4.42123 6.27176C4.42456 6.31709 4.78323 10.7644 4.99123 12.6431C5.06256 13.2918 5.41256 13.6264 6.02989 13.6391C7.69656 13.6744 9.39723 13.6764 11.2306 13.6431C11.8866 13.6304 12.2412 13.3024 12.3146 12.6384C12.5212 10.7758 12.8812 6.31709 12.8852 6.27176C12.9072 5.99709 13.1506 5.80509 13.4232 5.81376C13.6986 5.83643 13.9039 6.07709 13.8819 6.35243C13.8779 6.39776 13.5166 10.8718 13.3086 12.7484C13.1792 13.9131 12.4099 14.6218 11.2486 14.6431C10.3599 14.6584 9.50256 14.6671 8.66456 14.6671Z" fill="#ED4E3A"/>
<path fill-rule="evenodd" clip-rule="evenodd" d="M14.3053 4.66016H3C2.724 4.66016 2.5 4.43616 2.5 4.16016C2.5 3.88416 2.724 3.66016 3 3.66016H14.3053C14.5813 3.66016 14.8053 3.88416 14.8053 4.16016C14.8053 4.43616 14.5813 4.66016 14.3053 4.66016Z" fill="#ED4E3A"/>
<path fill-rule="evenodd" clip-rule="evenodd" d="M12.1274 4.65998C11.3687 4.65998 10.71 4.11932 10.5607 3.37532L10.3987 2.56465C10.3647 2.44132 10.224 2.33398 10.064 2.33398H7.24204C7.08204 2.33398 6.94138 2.44132 6.90071 2.59532L6.74538 3.37532C6.59671 4.11932 5.93738 4.65998 5.17871 4.65998C4.90271 4.65998 4.67871 4.43598 4.67871 4.15998C4.67871 3.88398 4.90271 3.65998 5.17871 3.65998C5.46271 3.65998 5.70938 3.45732 5.76538 3.17865L5.92738 2.36798C6.09204 1.74665 6.63004 1.33398 7.24204 1.33398H10.064C10.676 1.33398 11.214 1.74665 11.372 2.33798L11.5414 3.17865C11.5967 3.45732 11.8434 3.65998 12.1274 3.65998C12.4034 3.65998 12.6274 3.88398 12.6274 4.15998C12.6274 4.43598 12.4034 4.65998 12.1274 4.65998Z" fill="#ED4E3A"/>
</svg>
