<svg width="25" height="24" viewBox="0 0 25 24" fill="none" xmlns="http://www.w3.org/2000/svg">
<path fillRule="evenodd" clipRule="evenodd" d="M13.075 22.0001C11.72 22.0001 10.399 21.9852 9.09197 21.9581C7.41997 21.9251 6.26297 20.8411 6.07397 19.1291C5.75897 16.2891 5.21997 9.59515 5.21497 9.52815C5.18097 9.11515 5.48897 8.75315 5.90197 8.72015C6.30897 8.70915 6.67697 8.99515 6.70997 9.40715C6.71497 9.47515 7.25297 16.1461 7.56497 18.9641C7.67197 19.9371 8.19697 20.4391 9.12297 20.4581C11.623 20.5112 14.174 20.5141 16.924 20.4641C17.908 20.4451 18.44 19.9531 18.55 18.9571C18.86 16.1631 19.4 9.47515 19.406 9.40715C19.439 8.99515 19.804 8.70715 20.213 8.72015C20.626 8.75415 20.934 9.11515 20.901 9.52815C20.895 9.59615 20.353 16.3071 20.041 19.1221C19.847 20.8691 18.693 21.9321 16.951 21.9641C15.618 21.9871 14.332 22.0001 13.075 22.0001Z" fill="#151717"/>
<path fillRule="evenodd" clipRule="evenodd" d="M21.5361 6.98926H4.57812C4.16412 6.98926 3.82812 6.65326 3.82812 6.23926C3.82812 5.82526 4.16412 5.48926 4.57812 5.48926H21.5361C21.9501 5.48926 22.2861 5.82526 22.2861 6.23926C22.2861 6.65326 21.9501 6.98926 21.5361 6.98926Z" fill="#151717"/>
<path fillRule="evenodd" clipRule="evenodd" d="M18.2687 6.989C17.1307 6.989 16.1427 6.178 15.9187 5.062L15.6757 3.846C15.6247 3.661 15.4137 3.5 15.1737 3.5H10.9407C10.7007 3.5 10.4897 3.661 10.4287 3.892L10.1957 5.062C9.9727 6.178 8.9837 6.989 7.8457 6.989C7.4317 6.989 7.0957 6.653 7.0957 6.239C7.0957 5.825 7.4317 5.489 7.8457 5.489C8.2717 5.489 8.6417 5.185 8.7257 4.767L8.9687 3.551C9.2157 2.619 10.0227 2 10.9407 2H15.1737C16.0917 2 16.8987 2.619 17.1357 3.506L17.3897 4.767C17.4727 5.185 17.8427 5.489 18.2687 5.489C18.6827 5.489 19.0187 5.825 19.0187 6.239C19.0187 6.653 18.6827 6.989 18.2687 6.989Z" fill="#151717"/>
</svg>
