<svg width="20" height="18" viewBox="0 0 20 18" fill="none" xmlns="http://www.w3.org/2000/svg">
<path fill-rule="evenodd" clip-rule="evenodd" d="M10.002 13.1626C9.62245 13.1626 9.31445 12.8546 9.31445 12.4751V1.4375C9.31445 1.058 9.62245 0.75 10.002 0.75C10.3815 0.75 10.6895 1.058 10.6895 1.4375V12.4751C10.6895 12.8546 10.3815 13.1626 10.002 13.1626" fill="white"/>
<path fill-rule="evenodd" clip-rule="evenodd" d="M10.0006 13.1642C9.81814 13.1642 9.64214 13.0918 9.5138 12.9617L6.8408 10.2786C6.57314 10.0091 6.57405 9.57366 6.84264 9.30599C7.11214 9.03832 7.54664 9.03832 7.8143 9.30782L10.0006 11.5032L12.1868 9.30782C12.4545 9.03832 12.889 9.03832 13.1585 9.30599C13.4271 9.57366 13.428 10.0091 13.1603 10.2786L10.4873 12.9617C10.359 13.0918 10.183 13.1642 10.0006 13.1642" fill="white"/>
<mask id="mask0_6040_9352" style="mask-type:luminance" maskUnits="userSpaceOnUse" x="0" y="5" width="20" height="13">
<path fill-rule="evenodd" clip-rule="evenodd" d="M0.833984 5.08984H19.1671V17.6885H0.833984V5.08984Z" fill="white"/>
</mask>
<g mask="url(#mask0_6040_9352)">
<path fill-rule="evenodd" clip-rule="evenodd" d="M15.1111 17.6885H4.8994C2.65815 17.6885 0.833984 15.8653 0.833984 13.6231V9.14518C0.833984 6.90851 2.65357 5.08984 4.89115 5.08984H5.75373C6.13323 5.08984 6.44123 5.39784 6.44123 5.77734C6.44123 6.15684 6.13323 6.46484 5.75373 6.46484H4.89115C3.41165 6.46484 2.20898 7.66659 2.20898 9.14518V13.6231C2.20898 15.1072 3.41532 16.3135 4.8994 16.3135H15.1111C16.5887 16.3135 17.7923 15.1099 17.7923 13.6323V9.15526C17.7923 7.67118 16.5851 6.46484 15.1028 6.46484H14.2485C13.869 6.46484 13.561 6.15684 13.561 5.77734C13.561 5.39784 13.869 5.08984 14.2485 5.08984H15.1028C17.3441 5.08984 19.1673 6.91401 19.1673 9.15526V13.6323C19.1673 15.8689 17.3468 17.6885 15.1111 17.6885" fill="white"/>
</g>
</svg>
