<svg width="17" height="16" viewBox="0 0 17 16" fill="none" xmlns="http://www.w3.org/2000/svg">
<path fill-rule="evenodd" clip-rule="evenodd" d="M14.3344 14.626H9.49902C9.22302 14.626 8.99902 14.402 8.99902 14.126C8.99902 13.85 9.22302 13.626 9.49902 13.626H14.3344C14.6104 13.626 14.8344 13.85 14.8344 14.126C14.8344 14.402 14.6104 14.626 14.3344 14.626Z" fill="#0082AA"/>
<mask id="mask0_5845_55818" style="mask-type:luminance" maskUnits="userSpaceOnUse" x="1" y="2" width="13" height="13">
<path fill-rule="evenodd" clip-rule="evenodd" d="M1.83398 2H13.2877V14.6264H1.83398V2Z" fill="white"/>
</mask>
<g mask="url(#mask0_5845_55818)">
<path fill-rule="evenodd" clip-rule="evenodd" d="M9.24083 3.34443L2.96417 11.1944C2.85017 11.3371 2.80817 11.5211 2.85017 11.6978L3.30417 13.6211L5.33017 13.5958C5.52283 13.5938 5.70083 13.5078 5.81883 13.3611C7.9635 10.6778 12.0522 5.56176 12.1682 5.41176C12.2775 5.23443 12.3202 4.98376 12.2628 4.74243C12.2042 4.4951 12.0502 4.2851 11.8282 4.1511C11.7808 4.11843 10.6575 3.24643 10.6228 3.2191C10.2002 2.88043 9.5835 2.9391 9.24083 3.34443ZM2.9095 14.6264C2.67817 14.6264 2.47683 14.4678 2.42283 14.2418L1.87683 11.9278C1.76417 11.4484 1.87617 10.9538 2.1835 10.5698L8.4635 2.7151C8.46617 2.71243 8.46817 2.7091 8.47083 2.70643C9.1595 1.8831 10.4048 1.76176 11.2448 2.43576C11.2782 2.46176 12.3935 3.32843 12.3935 3.32843C12.7988 3.56976 13.1155 4.0011 13.2355 4.51176C13.3548 5.0171 13.2682 5.53843 12.9902 5.97909C12.9695 6.01176 12.9515 6.03976 6.5995 13.9864C6.2935 14.3678 5.83483 14.5898 5.34217 14.5958L2.91617 14.6264H2.9095Z" fill="#0082AA"/>
</g>
<path fill-rule="evenodd" clip-rule="evenodd" d="M11.3163 7.78959C11.2096 7.78959 11.1029 7.75559 11.0116 7.68625L7.37693 4.89425C7.15826 4.72625 7.11693 4.41292 7.28493 4.19292C7.4536 3.97425 7.76693 3.93359 7.98626 4.10159L11.6216 6.89292C11.8403 7.06092 11.8816 7.37492 11.7129 7.59425C11.6149 7.72225 11.4663 7.78959 11.3163 7.78959Z" fill="#0082AA"/>
</svg>
