<svg width="17" height="17" viewBox="0 0 17 17" fill="none" xmlns="http://www.w3.org/2000/svg">
<path fillRule="evenodd" clipRule="evenodd" d="M14.3373 14.7847H9.50195C9.22595 14.7847 9.00195 14.5607 9.00195 14.2847C9.00195 14.0087 9.22595 13.7847 9.50195 13.7847H14.3373C14.6133 13.7847 14.8373 14.0087 14.8373 14.2847C14.8373 14.5607 14.6133 14.7847 14.3373 14.7847Z" fill="#4E5152"/>
<mask id="mask0_2768_36765" style="mask-type:alpha" maskUnits="userSpaceOnUse" x="1" y="2" width="13" height="13">
<path fillRule="evenodd" clipRule="evenodd" d="M1.83789 2.1582H13.2916V14.7846H1.83789V2.1582Z" fill="white"/>
</mask>
<g mask="url(#mask0_2768_36765)">
<path fillRule="evenodd" clipRule="evenodd" d="M9.24474 3.50263L2.96807 11.3526C2.85407 11.4953 2.81207 11.6793 2.85407 11.856L3.30807 13.7793L5.33407 13.754C5.52674 13.752 5.70474 13.666 5.82274 13.5193C7.96741 10.836 12.0561 5.71996 12.1721 5.56996C12.2814 5.39263 12.3241 5.14196 12.2667 4.90063C12.2081 4.6533 12.0541 4.4433 11.8321 4.3093C11.7847 4.27663 10.6614 3.40463 10.6267 3.3773C10.2041 3.03863 9.58741 3.0973 9.24474 3.50263ZM2.91341 14.7846C2.68207 14.7846 2.48074 14.626 2.42674 14.4L1.88074 12.086C1.76807 11.6066 1.88007 11.112 2.18741 10.728L8.46741 2.8733C8.47007 2.87063 8.47207 2.8673 8.47474 2.86463C9.16341 2.0413 10.4087 1.91996 11.2487 2.59396C11.2821 2.61996 12.3974 3.48663 12.3974 3.48663C12.8027 3.72796 13.1194 4.1593 13.2394 4.66996C13.3587 5.1753 13.2721 5.69663 12.9941 6.1373C12.9734 6.16996 12.9554 6.19796 6.60341 14.1446C6.29741 14.526 5.83874 14.748 5.34607 14.754L2.92007 14.7846H2.91341Z" fill="#4E5152"/>
</g>
<path fillRule="evenodd" clipRule="evenodd" d="M11.3202 7.94779C11.2135 7.94779 11.1068 7.91379 11.0155 7.84446L7.38084 5.05246C7.16217 4.88446 7.12084 4.57112 7.28884 4.35112C7.4575 4.13246 7.77084 4.09179 7.99017 4.25979L11.6255 7.05112C11.8442 7.21912 11.8855 7.53312 11.7168 7.75246C11.6188 7.88046 11.4702 7.94779 11.3202 7.94779Z" fill="#4E5152"/>
</svg>
