<svg width="25" height="24" viewBox="0 0 25 24" fill="none" xmlns="http://www.w3.org/2000/svg">
<path fill-rule="evenodd" clip-rule="evenodd" d="M12.1049 13.4645C11.4359 13.4645 10.7689 13.2435 10.2109 12.8015L5.72586 9.1855C5.40286 8.9255 5.35286 8.4525 5.61186 8.1305C5.87286 7.8095 6.34486 7.7585 6.66686 8.0175L11.1479 11.6295C11.7109 12.0755 12.5039 12.0755 13.0709 11.6255L17.5069 8.0195C17.8289 7.7565 18.3009 7.8065 18.5629 8.1285C18.8239 8.4495 18.7749 8.9215 18.4539 9.1835L14.0099 12.7955C13.4479 13.2415 12.7759 13.4645 12.1049 13.4645Z" fill="black"/>
<mask id="mask0_2075_23512" style="mask-type:alpha" maskUnits="userSpaceOnUse" x="1" y="2" width="22" height="20">
<path fill-rule="evenodd" clip-rule="evenodd" d="M1.32812 2H22.828V21.5H1.32812V2Z" fill="white"/>
</mask>
<g mask="url(#mask0_2075_23512)">
<path fill-rule="evenodd" clip-rule="evenodd" d="M7.16713 20H16.9871C16.9891 19.998 16.9971 20 17.0031 20C18.1441 20 19.1561 19.592 19.9321 18.817C20.8331 17.92 21.3281 16.631 21.3281 15.188V8.32C21.3281 5.527 19.5021 3.5 16.9871 3.5H7.16913C4.65412 3.5 2.82812 5.527 2.82812 8.32V15.188C2.82812 16.631 3.32413 17.92 4.22412 18.817C5.00012 19.592 6.01312 20 7.15312 20H7.16713ZM7.15013 21.5C5.60713 21.5 4.22913 20.94 3.16513 19.88C1.98013 18.698 1.32812 17.032 1.32812 15.188V8.32C1.32812 4.717 3.83913 2 7.16913 2H16.9871C20.3171 2 22.8281 4.717 22.8281 8.32V15.188C22.8281 17.032 22.1761 18.698 20.9911 19.88C19.9281 20.939 18.5491 21.5 17.0031 21.5H16.9871H7.16913H7.15013Z" fill="black"/>
</g>
</svg>
