<svg width="13" height="13" viewBox="0 0 13 13" fill="none" xmlns="http://www.w3.org/2000/svg">
<path fillRule="evenodd" clipRule="evenodd" d="M6.39179 7.23225C6.05729 7.23225 5.72379 7.12175 5.44479 6.90075L3.20229 5.09275C3.04078 4.96275 3.01578 4.72625 3.14528 4.56525C3.27579 4.40475 3.51179 4.37925 3.67279 4.50875L5.91329 6.31475C6.19479 6.53775 6.59129 6.53775 6.87479 6.31275L9.09279 4.50975C9.25379 4.37825 9.48979 4.40325 9.62079 4.56425C9.75129 4.72475 9.72679 4.96075 9.56629 5.09175L7.34429 6.89775C7.06329 7.12075 6.72729 7.23225 6.39179 7.23225Z" fill="#4E5152"/>
<mask id="mask0_2725_37106" style="mask-type:alpha" maskUnits="userSpaceOnUse" x="1" y="1" width="11" height="11">
<path fillRule="evenodd" clipRule="evenodd" d="M1.00391 1.5H11.7539V11.25H1.00391V1.5Z" fill="white"/>
</mask>
<g mask="url(#mask0_2725_37106)">
<path fillRule="evenodd" clipRule="evenodd" d="M3.92341 10.5H8.83341C8.83441 10.499 8.83841 10.5 8.84141 10.5C9.41191 10.5 9.91791 10.296 10.3059 9.9085C10.7564 9.46 11.0039 8.8155 11.0039 8.094V4.66C11.0039 3.2635 10.0909 2.25 8.83341 2.25H3.92441C2.66691 2.25 1.75391 3.2635 1.75391 4.66V8.094C1.75391 8.8155 2.00191 9.46 2.45191 9.9085C2.83991 10.296 3.34641 10.5 3.91641 10.5H3.92341ZM3.91491 11.25C3.14341 11.25 2.45441 10.97 1.92241 10.44C1.32991 9.849 1.00391 9.016 1.00391 8.094V4.66C1.00391 2.8585 2.25941 1.5 3.92441 1.5H8.83341C10.4984 1.5 11.7539 2.8585 11.7539 4.66V8.094C11.7539 9.016 11.4279 9.849 10.8354 10.44C10.3039 10.9695 9.61441 11.25 8.84141 11.25H8.83341H3.92441H3.91491Z" fill="#4E5152"/>
</g>
</svg>
