<svg width="25" height="25" viewBox="0 0 25 25" fill="none" xmlns="http://www.w3.org/2000/svg">
<path fillRule="evenodd" clipRule="evenodd" d="M12.0273 17.041C11.6133 17.041 11.2773 16.705 11.2773 16.291V4.25C11.2773 3.836 11.6133 3.5 12.0273 3.5C12.4413 3.5 12.7773 3.836 12.7773 4.25V16.291C12.7773 16.705 12.4413 17.041 12.0273 17.041Z" fill="#00A2D4"/>
<path fillRule="evenodd" clipRule="evenodd" d="M12.0287 17.041C11.8297 17.041 11.6377 16.962 11.4977 16.82L8.58166 13.893C8.28966 13.599 8.29066 13.124 8.58366 12.832C8.87766 12.54 9.35166 12.54 9.64366 12.834L12.0287 15.229L14.4137 12.834C14.7057 12.54 15.1797 12.54 15.4737 12.832C15.7667 13.124 15.7677 13.599 15.4757 13.893L12.5597 16.82C12.4197 16.962 12.2277 17.041 12.0287 17.041Z" fill="#00A2D4"/>
<mask id="mask0_4254_18798" style="mask-type:alpha" maskUnits="userSpaceOnUse" x="2" y="8" width="21" height="14">
<path fillRule="evenodd" clipRule="evenodd" d="M2.02734 8.23242H22.0271V21.9764H2.02734V8.23242Z" fill="white"/>
</mask>
<g mask="url(#mask0_4254_18798)">
<path fillRule="evenodd" clipRule="evenodd" d="M17.6023 21.9764H6.46234C4.01734 21.9764 2.02734 19.9874 2.02734 17.5414V12.6564C2.02734 10.2164 4.01234 8.23242 6.45334 8.23242H7.39434C7.80834 8.23242 8.14434 8.56842 8.14434 8.98242C8.14434 9.39642 7.80834 9.73242 7.39434 9.73242H6.45334C4.83934 9.73242 3.52734 11.0434 3.52734 12.6564V17.5414C3.52734 19.1604 4.84334 20.4764 6.46234 20.4764H17.6023C19.2143 20.4764 20.5273 19.1634 20.5273 17.5514V12.6674C20.5273 11.0484 19.2103 9.73242 17.5933 9.73242H16.6613C16.2473 9.73242 15.9113 9.39642 15.9113 8.98242C15.9113 8.56842 16.2473 8.23242 16.6613 8.23242H17.5933C20.0383 8.23242 22.0273 10.2224 22.0273 12.6674V17.5514C22.0273 19.9914 20.0413 21.9764 17.6023 21.9764Z" fill="#00A2D4"/>
</g>
</svg>
