<svg width="20" height="18" viewBox="0 0 20 18" fill="none" xmlns="http://www.w3.org/2000/svg">
<path fill-rule="evenodd" clip-rule="evenodd" d="M7.76094 11.6167C7.56894 11.6167 7.37694 11.5437 7.23094 11.3967C6.49294 10.6597 6.08594 9.6797 6.08594 8.6377C6.08594 6.4777 7.84194 4.7207 9.99994 4.7207C11.0379 4.7207 12.0459 5.1397 12.7649 5.8707C13.0549 6.1667 13.0519 6.6407 12.7559 6.9307C12.4609 7.2227 11.9869 7.2177 11.6959 6.9237C11.2569 6.4767 10.6389 6.2207 9.99994 6.2207C8.66894 6.2207 7.58594 7.3047 7.58594 8.6377C7.58594 9.2787 7.83694 9.8827 8.29094 10.3367C8.58394 10.6297 8.58394 11.1037 8.29194 11.3967C8.14494 11.5437 7.95294 11.6167 7.76094 11.6167Z" fill="white"/>
<path fill-rule="evenodd" clip-rule="evenodd" d="M10.5676 12.4903C10.2126 12.4903 9.89657 12.2363 9.83057 11.8743C9.75657 11.4673 10.0266 11.0763 10.4346 11.0023C11.4146 10.8243 12.1906 10.0463 12.3666 9.06532C12.4406 8.65832 12.8306 8.39032 13.2376 8.46032C13.6456 8.53332 13.9166 8.92332 13.8436 9.33132C13.5566 10.9243 12.2946 12.1883 10.7026 12.4783C10.6576 12.4863 10.6116 12.4903 10.5676 12.4903Z" fill="white"/>
<mask id="mask0_4354_6745" style="mask-type:alpha" maskUnits="userSpaceOnUse" x="0" y="0" width="17" height="15">
<path fill-rule="evenodd" clip-rule="evenodd" d="M0 0.624023H16.0862V14.7222H0V0.624023Z" fill="white"/>
</mask>
<g mask="url(#mask0_4354_6745)">
<path fill-rule="evenodd" clip-rule="evenodd" d="M4.6545 14.7222C4.4925 14.7222 4.3295 14.6692 4.1915 14.5622C2.5005 13.2342 1.0715 11.2872 0.0615 8.93315C-0.0205 8.74315 -0.0205 8.52915 0.0615 8.34015C1.0825 5.97615 2.5205 4.01915 4.2205 2.68215C7.6865 -0.0608494 12.3005 -0.0698495 15.8015 2.70215C16.1265 2.95915 16.1815 3.43115 15.9245 3.75615C15.6665 4.07915 15.1965 4.13615 14.8705 3.87815C11.9045 1.53015 8.0835 1.53815 5.1495 3.86015C3.7135 4.99015 2.4805 6.63615 1.5705 8.63815C2.4715 10.6281 3.6935 12.2642 5.1185 13.3822C5.4445 13.6382 5.5005 14.1102 5.2445 14.4352C5.0965 14.6231 4.8765 14.7222 4.6545 14.7222Z" fill="white"/>
</g>
<mask id="mask1_4354_6745" style="mask-type:alpha" maskUnits="userSpaceOnUse" x="6" y="4" width="14" height="13">
<path fill-rule="evenodd" clip-rule="evenodd" d="M6.7168 4.74121H19.9993V16.6894H6.7168V4.74121Z" fill="white"/>
</mask>
<g mask="url(#mask1_4354_6745)">
<path fill-rule="evenodd" clip-rule="evenodd" d="M9.99943 16.6894C9.06243 16.6894 8.13043 16.5374 7.23043 16.2384C6.83743 16.1074 6.62443 15.6824 6.75543 15.2894C6.88643 14.8954 7.30943 14.6864 7.70443 14.8144C8.45143 15.0634 9.22343 15.1894 9.99943 15.1894C13.4274 15.1894 16.5604 12.7474 18.4294 8.63642C17.9734 7.63742 17.4424 6.73242 16.8484 5.94242C16.5994 5.61142 16.6654 5.14042 16.9964 4.89142C17.3264 4.64242 17.7974 4.71042 18.0464 5.04042C18.7704 6.00142 19.4064 7.11242 19.9374 8.33842C20.0204 8.52842 20.0204 8.74442 19.9374 8.93342C17.8414 13.7904 14.1264 16.6894 9.99943 16.6894Z" fill="white"/>
</g>
<mask id="mask2_4354_6745" style="mask-type:alpha" maskUnits="userSpaceOnUse" x="1" y="0" width="18" height="18">
<path fill-rule="evenodd" clip-rule="evenodd" d="M1.36328 0H18.6368V17.273H1.36328V0Z" fill="white"/>
</mask>
<g mask="url(#mask2_4354_6745)">
<path fill-rule="evenodd" clip-rule="evenodd" d="M2.11303 17.2728C1.92103 17.2728 1.72903 17.1998 1.58303 17.0528C1.29003 16.7598 1.29003 16.2858 1.58303 15.9928L17.357 0.218773C17.65 -0.0742266 18.124 -0.0742266 18.417 0.218773C18.71 0.511773 18.71 0.986773 18.417 1.27977L2.64303 17.0528C2.49703 17.1998 2.30503 17.2728 2.11303 17.2728Z" fill="white"/>
</g>
</svg>
