<svg width="18" height="17" viewBox="0 0 18 17" fill="none" xmlns="http://www.w3.org/2000/svg">
<path d="M6.80874 3.58926C5.06602 5.4976 3.87004 8.23926 3.75898 8.4976L0.666504 7.20593L4.12632 3.83093C4.52783 3.43926 5.10874 3.26426 5.67256 3.3726L6.80874 3.58926ZM8.50021 12.4643C8.50021 12.4643 11.6952 11.1726 13.5319 9.38093C18.145 4.88093 17.3761 1.36426 17.1284 0.572595C16.3168 0.322595 12.7118 -0.419072 8.0987 4.08093C6.26201 5.8726 4.93788 8.98926 4.93788 8.98926L8.50021 12.4643ZM14.0359 10.6393C12.0796 12.3393 9.26906 13.5059 9.00423 13.6143L10.3284 16.6309L13.7882 13.2559C14.1897 12.8643 14.3691 12.2976 14.258 11.7476L14.0359 10.6393ZM6.64643 13.2976C6.64643 13.9893 6.35598 14.6143 5.89467 15.0643C4.88662 16.0476 0.666504 16.6309 0.666504 16.6309C0.666504 16.6309 1.2645 12.5143 2.27254 11.5309C2.63031 11.1801 3.08688 10.9409 3.58428 10.8437C4.08168 10.7465 4.59747 10.7957 5.06617 10.985C5.53486 11.1743 5.93531 11.4952 6.21668 11.907C6.49804 12.3187 6.64762 12.8027 6.64643 13.2976ZM10.0635 5.7976C10.0635 4.88093 10.8324 4.13093 11.7721 4.13093C12.7118 4.13093 13.4806 4.88093 13.4806 5.7976C13.4806 6.71426 12.7118 7.46426 11.7721 7.46426C10.8324 7.46426 10.0635 6.71426 10.0635 5.7976Z" fill="#00A2D4"/>
</svg>
