<svg width="24" height="25" viewBox="0 0 24 25" fill="none" xmlns="http://www.w3.org/2000/svg">
<path d="M16.579 2.2358L14.4302 5.2358C14.3908 5.28908 14.3663 5.35186 14.359 5.41773C14.3518 5.4836 14.3621 5.55022 14.389 5.6108L15.1052 7.24955C15.132 7.31339 15.176 7.36856 15.2323 7.40893C15.2886 7.44931 15.3549 7.47332 15.424 7.4783L17.1752 7.62455C17.2425 7.63162 17.3104 7.62037 17.3718 7.59198C17.4332 7.56359 17.4858 7.51913 17.524 7.4633L19.6952 4.4633C20.1888 5.31478 20.4192 6.29334 20.3574 7.27558C20.2956 8.25783 19.9444 9.1998 19.3479 9.9827C18.7515 10.7656 17.9367 11.3544 17.0061 11.6748C16.0756 11.9953 15.071 12.033 14.119 11.7833C13.5802 11.6343 13.0722 11.3905 12.619 11.0633C12.143 10.7204 11.7338 10.2934 11.4115 9.8033C10.8872 8.98037 10.616 8.02163 10.6315 7.04599C10.647 6.07035 10.9486 5.12073 11.4989 4.31491C12.0491 3.5091 12.8238 2.88254 13.7269 2.51295C14.63 2.14335 15.6216 2.04698 16.579 2.2358Z" fill="#00A2D4" stroke="#00A2D4" stroke-width="1.7" stroke-linecap="round" stroke-linejoin="round"/>
<path d="M14.1188 11.7837C13.0051 11.4758 12.0423 10.7716 11.4113 9.80371L3.93005 20.2137C3.80119 20.3917 3.70867 20.5933 3.65778 20.8071C3.60689 21.0209 3.59862 21.2426 3.63344 21.4595C3.66827 21.6765 3.74551 21.8845 3.86075 22.0716C3.97598 22.2587 4.12696 22.4212 4.30505 22.55C4.48317 22.6794 4.68509 22.7724 4.89923 22.8236C5.11337 22.8748 5.33552 22.8833 5.55293 22.8484C5.77034 22.8136 5.97873 22.7362 6.16614 22.6206C6.35355 22.505 6.5163 22.3536 6.64505 22.175L14.1188 11.7837Z" stroke="#00A2D4" stroke-width="1.7" stroke-linecap="round" stroke-linejoin="round"/>
</svg>
