<svg width="25" height="24" viewBox="0 0 25 24" fill="none" xmlns="http://www.w3.org/2000/svg">
<path d="M22.6529 1.2V19.575H3.00293V5.175L8.17793 0H21.4904C22.1279 0 22.6529 0.5625 22.6529 1.2Z" fill="#EFF2F3"/>
<path d="M7.09102 5.175H3.04102L8.17852 0L8.14102 4.05C8.17852 4.6875 7.69102 5.175 7.09102 5.175Z" fill="#DADEDE"/>
<path d="M14.7408 10.5001C13.6533 9.45012 12.8658 8.25012 12.8658 8.25012C13.1658 7.80012 13.8783 5.21262 12.7908 4.46262C11.7033 3.71262 11.1408 5.10012 11.1408 5.10012C10.6533 6.82512 11.8158 8.40012 11.8158 8.40012L10.5033 11.2876C10.3533 11.2876 6.19082 12.9001 7.61582 14.8876C9.07832 16.8751 11.1033 12.0751 11.1033 12.0751C11.8908 11.8126 14.2908 11.4751 14.2908 11.4751C15.2283 12.7501 16.3533 13.1626 16.3533 13.1626C18.0783 13.6126 18.2658 12.1876 18.2658 12.1876C18.3033 10.3126 14.7408 10.5001 14.7408 10.5001ZM8.32832 14.2126C8.29082 14.2126 8.29082 14.1751 8.29082 14.1751C8.06582 13.6501 9.79082 12.6376 9.79082 12.6376C9.79082 12.6376 8.85332 14.4376 8.32832 14.2126ZM12.2283 5.13762C12.7158 5.58762 12.3033 7.12512 12.3033 7.12512C12.3033 7.12512 11.7408 5.58762 12.2283 5.13762ZM11.7783 10.9501L12.4533 9.30012L13.5033 10.5751L11.7783 10.9501ZM17.3283 12.1501C17.0283 12.6376 15.7908 11.5876 15.6783 11.4751C15.8658 11.4751 17.4783 11.5876 17.3283 12.1501ZM22.6533 18.3751V22.8001C22.6533 23.4376 22.1283 24.0001 21.4533 24.0001H4.16582C3.52832 24.0001 2.96582 23.4751 2.96582 22.8001V18.3751H22.6533Z" fill="#ED4E3A"/>
<path d="M11.2908 20.3254C11.2908 20.6254 11.1783 20.8504 10.9908 21.0379C10.8033 21.1879 10.5033 21.2629 10.1283 21.2629H9.82832V22.3504H9.34082V19.4629H10.2033C10.5783 19.4629 10.8408 19.5379 11.0283 19.6879C11.2158 19.8379 11.2908 20.0254 11.2908 20.3254ZM9.86582 20.8879H10.1283C10.3533 20.8879 10.5408 20.8504 10.6533 20.7754C10.7658 20.7004 10.8408 20.5504 10.8408 20.3629C10.8408 20.2129 10.8033 20.0629 10.6908 19.9879C10.5783 19.9129 10.4283 19.8754 10.2033 19.8754H9.86582V20.8879ZM14.2533 20.8879C14.2533 21.3754 14.1033 21.7504 13.8408 21.9754C13.5783 22.2379 13.2033 22.3504 12.6783 22.3504H11.8533V19.4629H12.7533C13.2033 19.4629 13.5783 19.5754 13.8408 19.8379C14.1033 20.0629 14.2533 20.4379 14.2533 20.8879ZM13.7283 20.8879C13.7283 20.1754 13.3908 19.8379 12.7533 19.8379H12.3408V21.9379H12.6783C13.3908 21.9754 13.7283 21.6004 13.7283 20.8879ZM15.3408 22.3504H14.8533V19.4629H16.5033V19.8754H15.3408V20.7754H16.4283V21.1879H15.3408V22.3504Z" fill="#EFF2F3"/>
</svg>
