<svg width="25" height="24" viewBox="0 0 25 24" fill="none" xmlns="http://www.w3.org/2000/svg">
<path fillRule="evenodd" clipRule="evenodd" d="M3.61684 4.08785L3.68939 4.01204C5.61681 2.08444 6.87197 1.57351 8.21119 2.34362C8.59643 2.56515 8.95758 2.87523 9.44867 3.37401L10.955 4.93603C11.7871 5.84393 11.9762 6.71478 11.7053 7.73465L11.668 7.86967L11.6265 8.00392L11.4252 8.59474C10.9941 9.91972 11.1741 10.6673 12.7076 12.2004C14.3023 13.7947 15.0467 13.9251 16.4739 13.4264L16.7282 13.338L17.0358 13.2381L17.1704 13.2007C18.2544 12.9115 19.1702 13.1423 20.1413 14.1128L21.3551 15.2852L21.7123 15.6366C22.1084 16.0405 22.3702 16.3606 22.5636 16.6989C23.3289 18.0377 22.8175 19.2921 20.8344 21.2677L20.6458 21.4589C20.3497 21.7442 20.0731 21.9486 19.6667 22.1416C18.9846 22.4655 18.1787 22.5876 17.2423 22.4573C14.9349 22.1364 12.0083 20.3158 8.3 16.6085C7.99814 16.3067 7.70903 16.0107 7.43237 15.7205L6.8956 15.1476C1.86575 9.68285 1.42201 6.32588 3.4833 4.2205L3.61684 4.08785ZM8.23454 4.28093C7.90874 3.95973 7.67209 3.76394 7.46344 3.64396C7.00192 3.37856 6.50362 3.49074 5.58142 4.28448L5.29165 4.54334C5.24111 4.59 5.18941 4.63843 5.13651 4.68868L4.80423 5.01231L4.7743 5.04972L4.54903 5.27603C4.00468 5.83204 3.74683 6.51064 3.96903 7.67767C4.33364 9.59269 6.00254 12.1905 9.36053 15.5477C12.8594 19.0456 15.5253 20.7041 17.4489 20.9716C18.5703 21.1276 19.1423 20.856 19.7257 20.2584L20.1705 19.8095C20.3791 19.5912 20.5574 19.3933 20.7079 19.2126L20.9132 18.9539C21.4378 18.2551 21.4857 17.8358 21.2614 17.4433C21.176 17.2939 21.0518 17.1302 20.871 16.93L20.6258 16.671L20.4807 16.5258L18.9494 15.0472C18.4377 14.5753 18.088 14.5084 17.5571 14.65L17.4038 14.6941L16.7695 14.9094C14.9294 15.5037 13.6019 15.2155 11.6471 13.2612C9.62242 11.237 9.38497 9.88537 10.0633 7.93917L10.1069 7.81411L10.2272 7.45153L10.2864 7.22043C10.3913 6.71746 10.2715 6.36677 9.73082 5.82601C9.70855 5.80375 9.68367 5.77866 9.6566 5.7512L8.23454 4.28093Z" fill="black"/>
</svg>
