<svg width="24" height="24" viewBox="0 0 24 24" fill="none" xmlns="http://www.w3.org/2000/svg">
<path fillRule="evenodd" clipRule="evenodd" d="M12.2468 21.9992C10.8918 21.9992 9.57084 21.9842 8.26384 21.9572C6.59184 21.9242 5.43484 20.8402 5.24584 19.1282C4.93084 16.2882 4.39184 9.59417 4.38684 9.52717C4.35284 9.11417 4.66084 8.75217 5.07384 8.71917C5.48084 8.70817 5.84884 8.99417 5.88184 9.40617C5.88684 9.47417 6.42484 16.1452 6.73684 18.9632C6.84384 19.9362 7.36884 20.4382 8.29484 20.4572C10.7948 20.5102 13.3458 20.5132 16.0958 20.4632C17.0798 20.4442 17.6118 19.9522 17.7218 18.9562C18.0318 16.1622 18.5718 9.47417 18.5778 9.40617C18.6108 8.99417 18.9758 8.70617 19.3848 8.71917C19.7978 8.75317 20.1058 9.11417 20.0728 9.52717C20.0668 9.59517 19.5248 16.3062 19.2128 19.1212C19.0188 20.8682 17.8648 21.9312 16.1228 21.9632C14.7898 21.9862 13.5038 21.9992 12.2468 21.9992Z" fill="#ED4E3A"/>
<path fillRule="evenodd" clipRule="evenodd" d="M20.708 6.98828H3.75C3.336 6.98828 3 6.65228 3 6.23828C3 5.82428 3.336 5.48828 3.75 5.48828H20.708C21.122 5.48828 21.458 5.82428 21.458 6.23828C21.458 6.65228 21.122 6.98828 20.708 6.98828Z" fill="#ED4E3A"/>
<path fillRule="evenodd" clipRule="evenodd" d="M17.4406 6.989C16.3026 6.989 15.3146 6.178 15.0906 5.062L14.8476 3.846C14.7966 3.661 14.5856 3.5 14.3456 3.5H10.1126C9.87258 3.5 9.66158 3.661 9.60058 3.892L9.36758 5.062C9.14458 6.178 8.15558 6.989 7.01758 6.989C6.60358 6.989 6.26758 6.653 6.26758 6.239C6.26758 5.825 6.60358 5.489 7.01758 5.489C7.44358 5.489 7.81358 5.185 7.89758 4.767L8.14058 3.551C8.38758 2.619 9.19458 2 10.1126 2H14.3456C15.2636 2 16.0706 2.619 16.3076 3.506L16.5616 4.767C16.6446 5.185 17.0146 5.489 17.4406 5.489C17.8546 5.489 18.1906 5.825 18.1906 6.239C18.1906 6.653 17.8546 6.989 17.4406 6.989Z" fill="#ED4E3A"/>
</svg>
