<svg width="16" height="16" viewBox="0 0 16 16" fill="none" xmlns="http://www.w3.org/2000/svg">
<mask id="mask0_4687_42951" style="mask-type:luminance" maskUnits="userSpaceOnUse" x="2" y="1" width="12" height="14">
<path fill-rule="evenodd" clip-rule="evenodd" d="M2.66699 1.33398H13.9782V14.9044H2.66699V1.33398Z" fill="white"/>
</mask>
<g mask="url(#mask0_4687_42951)">
<path fill-rule="evenodd" clip-rule="evenodd" d="M8.3226 2.33398C7.75727 2.33398 4.1906 3.58998 3.77927 3.93332C3.65794 4.05532 3.65327 4.26732 3.67927 5.68665C3.69127 6.37065 3.70794 7.29998 3.70794 8.58665C3.70794 12.054 7.5226 13.5933 8.32194 13.8766C9.1206 13.592 12.9373 12.044 12.9373 8.58665C12.9373 7.29865 12.9539 6.36865 12.9666 5.68465C12.9919 4.26665 12.9873 4.05465 12.8586 3.92665C12.4553 3.58998 8.88794 2.33398 8.3226 2.33398M8.3226 14.9047C8.27394 14.9047 8.22527 14.898 8.17794 14.8833C7.9546 14.816 2.70794 13.1747 2.70794 8.58665C2.70794 7.30865 2.69127 6.38398 2.67927 5.70532C2.6486 4.00998 2.64194 3.65665 3.07994 3.21932C3.60327 2.69465 7.5666 1.33398 8.3226 1.33398C9.07794 1.33398 13.0413 2.69465 13.5659 3.21932C14.0033 3.65665 13.9966 4.00998 13.9659 5.70332C13.9539 6.38198 13.9373 7.30665 13.9373 8.58665C13.9373 13.1747 8.6906 14.816 8.46727 14.8833C8.41994 14.898 8.37127 14.9047 8.3226 14.9047" fill="#727474"/>
</g>
<path fill-rule="evenodd" clip-rule="evenodd" d="M7.85158 9.67991V9.67991C7.71892 9.67991 7.59158 9.62724 7.49758 9.53324L6.23625 8.27058C6.04158 8.07524 6.04158 7.75791 6.23692 7.56324C6.43158 7.36791 6.74892 7.36791 6.94425 7.56324L7.85158 8.47191L10.0969 6.22658C10.2922 6.03124 10.6082 6.03124 10.8036 6.22658C10.9989 6.42191 10.9989 6.73858 10.8036 6.93391L8.20492 9.53324C8.11158 9.62724 7.98425 9.67991 7.85158 9.67991" fill="#727474"/>
</svg>
