<svg width="192" height="192" viewBox="0 0 192 192" fill="none" xmlns="http://www.w3.org/2000/svg">
<path d="M97.1426 35.6162C84.4846 35.6162 72.1109 39.3697 61.5861 46.4022C51.0614 53.4346 42.8583 63.43 38.0143 75.1245C33.1703 86.8189 31.9029 99.6872 34.3723 112.102C36.8418 124.517 42.9372 135.92 51.8878 144.871C60.8383 153.822 72.242 159.917 84.6568 162.386C97.0716 164.856 109.94 163.589 121.634 158.744C133.329 153.9 143.324 145.697 150.357 135.173C157.389 124.648 161.143 112.274 161.143 99.6162C161.124 82.6482 154.375 66.3806 142.376 54.3824C130.378 42.3842 114.111 35.6353 97.1426 35.6162ZM97.1426 159.045C85.3887 159.045 73.8988 155.559 64.1259 149.029C54.3529 142.499 46.7358 133.218 42.2378 122.359C37.7398 111.499 36.5629 99.5503 38.8559 88.0223C41.149 76.4943 46.809 65.9051 55.1203 57.5939C63.4315 49.2826 74.0207 43.6226 85.5487 41.3295C97.0767 39.0365 109.026 40.2134 119.885 44.7114C130.744 49.2094 140.026 56.8265 146.556 66.5995C153.086 76.3724 156.571 87.8623 156.571 99.6162C156.553 115.372 150.286 130.478 139.145 141.619C128.004 152.76 112.899 159.027 97.1426 159.045Z" fill="#DEFFE9"/>
<path d="M132.112 70.5577L78.0229 123.783L62.2274 107.183C61.8086 106.748 61.2347 106.496 60.6309 106.483C60.0272 106.469 59.4427 106.696 59.0052 107.112C58.5677 107.528 58.3126 108.101 58.2958 108.704C58.279 109.308 58.5017 109.894 58.9154 110.334L76.3131 128.619C76.5222 128.839 76.7729 129.016 77.0508 129.138C77.3286 129.26 77.628 129.325 77.9314 129.33H77.9703C78.5699 129.33 79.1453 129.094 79.5726 128.673L135.317 73.816C135.539 73.6076 135.718 73.3567 135.842 73.0783C135.966 72.7999 136.033 72.4994 136.039 72.1947C136.045 71.8899 135.99 71.587 135.878 71.3037C135.765 71.0205 135.597 70.7626 135.383 70.5453C135.17 70.3279 134.915 70.1556 134.633 70.0383C134.352 69.921 134.05 69.8612 133.745 69.8623C133.44 69.8635 133.139 69.9256 132.858 70.045C132.578 70.1644 132.324 70.3387 132.112 70.5577Z" fill="#00D448"/>
<path d="M172.253 167.902H121.441C137.527 161.934 151.003 150.501 159.512 135.603C168.022 120.705 171.023 103.29 167.991 86.4024C164.96 69.5152 156.088 54.2312 142.928 43.2232C129.768 32.2151 113.157 26.1837 95.9995 26.1837C78.8424 26.1837 62.2312 32.2151 49.071 43.2232C35.9108 54.2312 27.0392 69.5152 24.0076 86.4024C20.9759 103.29 23.9772 120.705 32.4867 135.603C40.9961 150.501 54.472 161.934 70.5578 167.902H19.7464C19.4212 167.86 19.0907 167.887 18.777 167.982C18.4632 168.078 18.1734 168.239 17.927 168.455C17.6805 168.672 17.4831 168.938 17.3478 169.237C17.2125 169.536 17.1426 169.86 17.1426 170.188C17.1426 170.516 17.2125 170.84 17.3478 171.139C17.4831 171.437 17.6805 171.704 17.927 171.92C18.1734 172.136 18.4632 172.298 18.777 172.393C19.0907 172.489 19.4212 172.516 19.7464 172.473H172.253C172.578 172.516 172.908 172.489 173.222 172.393C173.536 172.298 173.826 172.136 174.072 171.92C174.318 171.704 174.516 171.437 174.651 171.139C174.786 170.84 174.856 170.516 174.856 170.188C174.856 169.86 174.786 169.536 174.651 169.237C174.516 168.938 174.318 168.672 174.072 168.455C173.826 168.239 173.536 168.078 173.222 167.982C172.908 167.887 172.578 167.86 172.253 167.902ZM27.4287 99.3307C27.4287 85.7685 31.4503 72.5109 38.985 61.2344C46.5198 49.9579 57.2291 41.1689 69.7589 35.9789C82.2887 30.7889 96.0761 29.431 109.378 32.0768C122.679 34.7226 134.898 41.2534 144.487 50.8433C154.077 60.4332 160.608 72.6515 163.254 85.953C165.9 99.2546 164.542 113.042 159.352 125.572C154.162 138.102 145.373 148.811 134.096 156.346C122.82 163.88 109.562 167.902 96.0001 167.902C77.8201 167.882 60.3907 160.65 47.5355 147.795C34.6803 134.94 27.4492 117.511 27.4287 99.3307ZM101.143 20.1878C101.821 20.1878 102.484 19.9867 103.048 19.61C103.612 19.2332 104.051 18.6978 104.311 18.0713C104.57 17.4448 104.638 16.7554 104.506 16.0903C104.373 15.4253 104.047 14.8144 103.567 14.3349C103.088 13.8554 102.477 13.5288 101.812 13.3965C101.147 13.2642 100.457 13.3321 99.8309 13.5916C99.2044 13.8511 98.6689 14.2906 98.2922 14.8544C97.9155 15.4182 97.7144 16.0811 97.7144 16.7592C97.7153 17.6683 98.0768 18.5398 98.7196 19.1826C99.3624 19.8254 100.234 20.1869 101.143 20.1878ZM101.143 15.0449C101.482 15.0449 101.813 15.1455 102.095 15.3338C102.377 15.5222 102.597 15.79 102.727 16.1032C102.856 16.4164 102.89 16.7611 102.824 17.0937C102.758 17.4262 102.595 17.7317 102.355 17.9714C102.115 18.2112 101.81 18.3744 101.477 18.4406C101.145 18.5067 100.8 18.4728 100.487 18.343C100.174 18.2133 99.9059 17.9935 99.7176 17.7116C99.5292 17.4297 99.4286 17.0983 99.4286 16.7592C99.429 16.3047 99.6097 15.8688 99.9311 15.5474C100.253 15.226 100.688 15.0452 101.143 15.0449ZM180.92 77.6164C180.468 77.6164 180.026 77.7504 179.65 78.0016C179.274 78.2527 178.981 78.6097 178.808 79.0274C178.635 79.445 178.59 79.9046 178.678 80.348C178.766 80.7914 178.984 81.1987 179.304 81.5183C179.624 81.838 180.031 82.0557 180.474 82.1439C180.918 82.2321 181.377 82.1868 181.795 82.0138C182.212 81.8408 182.569 81.5478 182.821 81.172C183.072 80.7961 183.206 80.3541 183.206 79.9021C183.205 79.2961 182.964 78.715 182.536 78.2865C182.107 77.858 181.526 77.617 180.92 77.6164ZM180.92 81.0449C180.694 81.0449 180.473 80.9779 180.285 80.8523C180.097 80.7267 179.951 80.5483 179.864 80.3394C179.778 80.1306 179.755 79.9008 179.799 79.6791C179.843 79.4574 179.952 79.2538 180.112 79.094C180.272 78.9341 180.475 78.8253 180.697 78.7812C180.919 78.7371 181.149 78.7597 181.357 78.8462C181.566 78.9327 181.745 79.0792 181.87 79.2671C181.996 79.4551 182.063 79.676 182.063 79.9021C182.063 80.2051 181.942 80.4956 181.728 80.7099C181.514 80.9241 181.223 81.0446 180.92 81.0449ZM148.572 4.0918C148.119 4.0918 147.678 4.22585 147.302 4.47701C146.926 4.72817 146.633 5.08515 146.46 5.50281C146.287 5.92047 146.242 6.38005 146.33 6.82343C146.418 7.26682 146.636 7.67409 146.955 7.99376C147.275 8.31342 147.682 8.53111 148.126 8.61931C148.569 8.7075 149.029 8.66224 149.446 8.48924C149.864 8.31624 150.221 8.02327 150.472 7.64739C150.723 7.2715 150.857 6.82958 150.857 6.37751C150.857 5.77149 150.616 5.19046 150.187 4.76194C149.759 4.33341 149.178 4.0924 148.572 4.0918ZM148.572 7.52037C148.345 7.52037 148.125 7.45334 147.937 7.32776C147.749 7.20218 147.602 7.02369 147.516 6.81486C147.429 6.60603 147.407 6.37624 147.451 6.15455C147.495 5.93286 147.604 5.72922 147.763 5.56939C147.923 5.40956 148.127 5.30071 148.349 5.25661C148.57 5.21252 148.8 5.23515 149.009 5.32165C149.218 5.40815 149.396 5.55463 149.522 5.74257C149.647 5.93052 149.714 6.15148 149.714 6.37751C149.714 6.68052 149.594 6.97104 149.379 7.1853C149.165 7.39956 148.875 7.52007 148.572 7.52037ZM184.381 17.4255C183.929 17.4255 183.487 17.5596 183.111 17.8107C182.735 18.0619 182.442 18.4189 182.269 18.8365C182.096 19.2542 182.051 19.7138 182.139 20.1571C182.227 20.6005 182.445 21.0078 182.764 21.3275C183.084 21.6471 183.491 21.8648 183.935 21.953C184.378 22.0412 184.838 21.9959 185.255 21.8229C185.673 21.6499 186.03 21.357 186.281 20.9811C186.532 20.6052 186.666 20.1633 186.666 19.7112C186.666 19.1052 186.425 18.5242 185.996 18.0956C185.568 17.6671 184.987 17.4261 184.381 17.4255ZM184.381 20.8541C184.155 20.8541 183.934 20.7871 183.746 20.6615C183.558 20.5359 183.411 20.3574 183.325 20.1486C183.238 19.9397 183.216 19.71 183.26 19.4883C183.304 19.2666 183.413 19.0629 183.573 18.9031C183.732 18.7433 183.936 18.6344 184.158 18.5903C184.379 18.5462 184.609 18.5689 184.818 18.6554C185.027 18.7419 185.205 18.8883 185.331 19.0763C185.456 19.2642 185.523 19.4852 185.523 19.7112C185.523 20.0142 185.403 20.3048 185.188 20.519C184.974 20.7333 184.684 20.8538 184.381 20.8541ZM34.6344 34.9489C34.6344 34.4969 34.5003 34.0549 34.2492 33.6791C33.998 33.3032 33.641 33.0102 33.2234 32.8372C32.8057 32.6642 32.3461 32.6189 31.9027 32.7071C31.4594 32.7953 31.0521 33.013 30.7324 33.3327C30.4128 33.6524 30.1951 34.0596 30.1069 34.503C30.0187 34.9464 30.0639 35.406 30.2369 35.8236C30.4099 36.2413 30.7029 36.5983 31.0788 36.8494C31.4547 37.1006 31.8966 37.2347 32.3487 37.2347C32.9547 37.2341 33.5357 36.993 33.9642 36.5645C34.3928 36.136 34.6338 35.555 34.6344 34.9489ZM31.2058 34.9489C31.2058 34.7229 31.2728 34.5019 31.3984 34.314C31.524 34.1261 31.7025 33.9796 31.9113 33.8931C32.1201 33.8066 32.3499 33.7839 32.5716 33.828C32.7933 33.8721 32.9969 33.981 33.1568 34.1408C33.3166 34.3006 33.4255 34.5043 33.4696 34.726C33.5137 34.9477 33.491 35.1775 33.4045 35.3863C33.318 35.5951 33.1715 35.7736 32.9836 35.8992C32.7957 36.0248 32.5747 36.0918 32.3487 36.0918C32.0456 36.0915 31.7551 35.971 31.5409 35.7567C31.3266 35.5425 31.2061 35.2519 31.2058 34.9489Z" fill="#00D448"/>
<path d="M12.4431 77.6291L14.1425 75.3936L13.0694 74.7856L11.9779 77.2885H11.9425L10.8339 74.8039L9.74252 75.4291L11.4237 77.6119V77.6473L8.79395 77.3068V78.5228L11.4408 78.1833V78.2188L9.74252 80.4005L10.7608 81.0451L11.9242 78.5228H11.9597L13.0328 81.0268L14.1597 80.3833L12.4431 78.2371V78.2005L15.1425 78.5228V77.3068L12.4431 77.6645V77.6291ZM13.8991 7.12963L12.9208 8.38563L13.5071 8.75706L14.1768 7.30449H14.1974L14.8157 8.74677L15.4648 8.37534L14.4762 7.13992V7.11934L16.0305 7.30449V6.60391L14.4762 6.81077V6.7902L15.4545 5.5022L14.8362 5.15249L14.2088 6.59363H14.1871L13.5494 5.16277L12.9208 5.52277L13.8888 6.77992V6.80049L12.3745 6.60391V7.30449L13.8991 7.10906V7.12963ZM74.6339 7.19363V6.00049L71.9859 6.35134V6.31592L73.6522 4.12392L72.5997 3.52734L71.5299 5.98334H71.4945L70.4077 3.54449L69.3368 4.15934L70.9859 6.29877V6.3342L68.4065 6.00049V7.19363L71.0031 6.85991V6.89534L69.3368 9.03477L70.3368 9.66677L71.4774 7.19363H71.5117L72.5642 9.64849L73.6694 9.01763L71.9859 6.91249V6.87706L74.6339 7.19363ZM158.695 40.9593L160.132 39.0679L159.224 38.5536L158.301 40.6713H158.27L157.333 38.5685L156.409 39.0976L157.832 40.9445V40.9742L155.608 40.6862V41.7148L157.846 41.4279V41.4588L156.409 43.3033L157.272 43.8485L158.256 41.7148H158.285L159.193 43.8336L160.147 43.2885L158.695 41.4736V41.4428L160.978 41.7148V40.6862L158.695 40.9891V40.9593Z" fill="#DEFFE9"/>
<path d="M2.28571 172.473C3.54808 172.473 4.57143 171.449 4.57143 170.187C4.57143 168.925 3.54808 167.901 2.28571 167.901C1.02335 167.901 0 168.925 0 170.187C0 171.449 1.02335 172.473 2.28571 172.473Z" fill="#00D448"/>
<path d="M12.5717 167.901H9.14314C8.53693 167.901 7.95555 168.142 7.52689 168.571C7.09824 168.999 6.85742 169.581 6.85742 170.187C6.85742 170.793 7.09824 171.375 7.52689 171.803C7.95555 172.232 8.53693 172.473 9.14314 172.473H12.5717C13.1779 172.473 13.7593 172.232 14.188 171.803C14.6166 171.375 14.8574 170.793 14.8574 170.187C14.8574 169.581 14.6166 168.999 14.188 168.571C13.7593 168.142 13.1779 167.901 12.5717 167.901ZM182.857 167.901H179.429C178.823 167.901 178.241 168.142 177.813 168.571C177.384 168.999 177.143 169.581 177.143 170.187C177.143 170.793 177.384 171.375 177.813 171.803C178.241 172.232 178.823 172.473 179.429 172.473H182.857C183.464 172.473 184.045 172.232 184.474 171.803C184.902 171.375 185.143 170.793 185.143 170.187C185.143 169.581 184.902 168.999 184.474 168.571C184.045 168.142 183.464 167.901 182.857 167.901Z" fill="#00D448"/>
<path d="M189.714 172.473C190.977 172.473 192 171.449 192 170.187C192 168.925 190.977 167.901 189.714 167.901C188.452 167.901 187.429 168.925 187.429 170.187C187.429 171.449 188.452 172.473 189.714 172.473Z" fill="#00D448"/>
<path d="M135.033 177.045H125.538C124.963 177.09 124.425 177.35 124.033 177.773C123.641 178.197 123.423 178.753 123.423 179.331C123.423 179.908 123.641 180.464 124.033 180.888C124.425 181.312 124.963 181.572 125.538 181.616H135.033C135.609 181.572 136.146 181.312 136.539 180.888C136.931 180.464 137.149 179.908 137.149 179.331C137.149 178.753 136.931 178.197 136.539 177.773C136.146 177.35 135.609 177.09 135.033 177.045ZM66.4618 177.045H56.9669C56.3913 177.09 55.8537 177.35 55.4616 177.773C55.0694 178.197 54.8516 178.753 54.8516 179.331C54.8516 179.908 55.0694 180.464 55.4616 180.888C55.8537 181.312 56.3913 181.572 56.9669 181.616H66.4618C67.0374 181.572 67.575 181.312 67.9672 180.888C68.3594 180.464 68.5772 179.908 68.5772 179.331C68.5772 178.753 68.3594 178.197 67.9672 177.773C67.575 177.35 67.0374 177.09 66.4618 177.045ZM118.857 177.045H73.1429C72.5367 177.045 71.9554 177.286 71.5267 177.714C71.098 178.143 70.8572 178.724 70.8572 179.331C70.8572 179.937 71.098 180.518 71.5267 180.947C71.9554 181.376 72.5367 181.616 73.1429 181.616H91.3601V183.902H82.2858C81.6796 183.902 81.0982 184.143 80.6696 184.572C80.2409 185 80.0001 185.582 80.0001 186.188C80.0001 186.794 80.2409 187.375 80.6696 187.804C81.0982 188.233 81.6796 188.473 82.2858 188.473H110.857C111.463 188.473 112.045 188.233 112.473 187.804C112.902 187.375 113.143 186.794 113.143 186.188C113.143 185.582 112.902 185 112.473 184.572C112.045 184.143 111.463 183.902 110.857 183.902H100.64V181.616H118.857C119.463 181.616 120.045 181.376 120.473 180.947C120.902 180.518 121.143 179.937 121.143 179.331C121.143 178.724 120.902 178.143 120.473 177.714C120.045 177.286 119.463 177.045 118.857 177.045Z" fill="#DEFFE9"/>
</svg>
