<svg width="24" height="25" viewBox="0 0 24 25" fill="none" xmlns="http://www.w3.org/2000/svg">
<path fillRule="evenodd" clipRule="evenodd" d="M13.5 7.00971C13.5 7.83726 12.8295 8.51367 12 8.51367C11.1705 8.51367 10.5 7.85073 10.5 7.02467V7.00971C10.5 6.18215 11.1705 5.51322 12 5.51322C12.8295 5.51322 13.5 6.18215 13.5 7.00971Z" fill="#151717"/>
<path fillRule="evenodd" clipRule="evenodd" d="M13.5 13.0102C13.5 13.8378 12.8295 14.5127 12 14.5127C11.1705 14.5127 10.5 13.8512 10.5 13.0237V13.0102C10.5 12.1827 11.1705 11.5137 12 11.5137C12.8295 11.5137 13.5 12.1827 13.5 13.0102Z" fill="#151717"/>
<path fillRule="evenodd" clipRule="evenodd" d="M13.5 19.0097C13.5 19.8373 12.8295 20.5137 12 20.5137C11.1705 20.5137 10.5 19.8507 10.5 19.0232V19.0097C10.5 18.1822 11.1705 17.5132 12 17.5132C12.8295 17.5132 13.5 18.1822 13.5 19.0097Z" fill="#151717"/>
</svg>
