<svg width="22" height="22" viewBox="0 0 22 22" fill="none" xmlns="http://www.w3.org/2000/svg">
<path fill-rule="evenodd" clip-rule="evenodd" d="M10.998 6.83742C11.3775 6.83742 11.6855 7.14542 11.6855 7.52492L11.6855 18.5625C11.6855 18.942 11.3775 19.25 10.998 19.25C10.6185 19.25 10.3105 18.942 10.3105 18.5625L10.3105 7.52492C10.3105 7.14542 10.6185 6.83742 10.998 6.83742" fill="white"/>
<path fill-rule="evenodd" clip-rule="evenodd" d="M10.9994 6.83576C11.1819 6.83576 11.3579 6.90818 11.4862 7.03834L14.1592 9.72143C14.4269 9.99093 14.4259 10.4263 14.1574 10.694C13.8879 10.9617 13.4534 10.9617 13.1857 10.6922L10.9994 8.49676L8.8132 10.6922C8.54553 10.9617 8.11103 10.9617 7.84153 10.694C7.57295 10.4263 7.57203 9.99093 7.8397 9.72143L10.5127 7.03834C10.641 6.90818 10.817 6.83576 10.9994 6.83576" fill="white"/>
<mask id="mask0_5972_55682" style="mask-type:luminance" maskUnits="userSpaceOnUse" x="1" y="2" width="20" height="13">
<path fill-rule="evenodd" clip-rule="evenodd" d="M20.166 14.9102L1.83287 14.9102V2.31149L20.166 2.31149V14.9102Z" fill="white"/>
</mask>
<g mask="url(#mask0_5972_55682)">
<path fill-rule="evenodd" clip-rule="evenodd" d="M5.88893 2.31149L16.1006 2.31149C18.3418 2.31149 20.166 4.13474 20.166 6.37691V10.8548C20.166 13.0915 18.3464 14.9102 16.1088 14.9102H15.2463C14.8668 14.9102 14.5588 14.6022 14.5588 14.2227C14.5588 13.8432 14.8668 13.5352 15.2463 13.5352H16.1088C17.5883 13.5352 18.791 12.3334 18.791 10.8548V6.37691C18.791 4.89282 17.5847 3.68649 16.1006 3.68649L5.88893 3.68649C4.41127 3.68649 3.20768 4.89007 3.20768 6.36774V10.8447C3.20768 12.3288 4.41493 13.5352 5.89718 13.5352H6.75152C7.13102 13.5352 7.43902 13.8432 7.43902 14.2227C7.43902 14.6022 7.13102 14.9102 6.75152 14.9102H5.89718C3.65593 14.9102 1.83268 13.086 1.83268 10.8447V6.36774C1.83268 4.13107 3.65318 2.31149 5.88893 2.31149" fill="white"/>
</g>
</svg>
