<svg width="16" height="16" viewBox="0 0 16 16" fill="none" xmlns="http://www.w3.org/2000/svg">
<path fill-rule="evenodd" clip-rule="evenodd" d="M15.1667 9.30371H1.16675C0.890748 9.30371 0.666748 9.07971 0.666748 8.80371C0.666748 8.52771 0.890748 8.30371 1.16675 8.30371H15.1667C15.4427 8.30371 15.6667 8.52771 15.6667 8.80371C15.6667 9.07971 15.4427 9.30371 15.1667 9.30371Z" fill="#727474"/>
<path fill-rule="evenodd" clip-rule="evenodd" d="M13.9199 6.49667C13.6439 6.49667 13.4199 6.27267 13.4199 5.99667V4.98733C13.4199 3.892 12.5279 3 11.4313 3H10.6279C10.3519 3 10.1279 2.776 10.1279 2.5C10.1279 2.224 10.3519 2 10.6279 2H11.4313C13.0793 2 14.4199 3.34067 14.4199 4.98733V5.99667C14.4199 6.27267 14.1959 6.49667 13.9199 6.49667Z" fill="#727474"/>
<path fill-rule="evenodd" clip-rule="evenodd" d="M2.41357 6.49667C2.13757 6.49667 1.91357 6.27267 1.91357 5.99667V4.98733C1.91357 3.34067 3.25424 2 4.90224 2H5.72624C6.00224 2 6.22624 2.224 6.22624 2.5C6.22624 2.776 6.00224 3 5.72624 3H4.90224C3.80557 3 2.91357 3.892 2.91357 4.98733V5.99667C2.91357 6.27267 2.68957 6.49667 2.41357 6.49667Z" fill="#727474"/>
<path fill-rule="evenodd" clip-rule="evenodd" d="M11.4315 14.5074H10.6282C10.3522 14.5074 10.1282 14.2834 10.1282 14.0074C10.1282 13.7314 10.3522 13.5074 10.6282 13.5074H11.4315C12.5282 13.5074 13.4202 12.6154 13.4202 11.5194V8.80273C13.4202 8.52673 13.6442 8.30273 13.9202 8.30273C14.1962 8.30273 14.4202 8.52673 14.4202 8.80273V11.5194C14.4202 13.1667 13.0795 14.5074 11.4315 14.5074Z" fill="#727474"/>
<path fill-rule="evenodd" clip-rule="evenodd" d="M5.726 14.5074H4.902C3.254 14.5074 1.91333 13.1667 1.91333 11.5194V8.80273C1.91333 8.52673 2.13733 8.30273 2.41333 8.30273C2.68933 8.30273 2.91333 8.52673 2.91333 8.80273V11.5194C2.91333 12.6154 3.80533 13.5074 4.902 13.5074H5.726C6.002 13.5074 6.226 13.7314 6.226 14.0074C6.226 14.2834 6.002 14.5074 5.726 14.5074Z" fill="#727474"/>
</svg>
