<svg width="20" height="20" viewBox="0 0 20 20" fill="none" xmlns="http://www.w3.org/2000/svg">
<g clip-path="url(#clip0_8272_86160)">
<path d="M10.0006 3.33333C10.9211 3.33333 11.6673 2.58714 11.6673 1.66667C11.6673 0.746192 10.9211 0 10.0006 0C9.08017 0 8.33398 0.746192 8.33398 1.66667C8.33398 2.58714 9.08017 3.33333 10.0006 3.33333Z" fill="#242627"/>
<path d="M10.0006 11.6673C10.9211 11.6673 11.6673 10.9211 11.6673 10.0006C11.6673 9.08018 10.9211 8.33398 10.0006 8.33398C9.08017 8.33398 8.33398 9.08018 8.33398 10.0006C8.33398 10.9211 9.08017 11.6673 10.0006 11.6673Z" fill="#242627"/>
<path d="M10.0006 19.9994C10.9211 19.9994 11.6673 19.2532 11.6673 18.3327C11.6673 17.4122 10.9211 16.666 10.0006 16.666C9.08017 16.666 8.33398 17.4122 8.33398 18.3327C8.33398 19.2532 9.08017 19.9994 10.0006 19.9994Z" fill="#242627"/>
</g>
<defs>
<clipPath id="clip0_8272_86160">
<rect width="20" height="20" fill="white"/>
</clipPath>
</defs>
</svg>
