<svg width="25" height="24" viewBox="0 0 25 24" fill="none" xmlns="http://www.w3.org/2000/svg">
<path fill-rule="evenodd" clip-rule="evenodd" d="M12.5977 16.1541C12.1837 16.1541 11.8477 15.8181 11.8477 15.4041V8.07715C11.8477 7.66315 12.1837 7.32715 12.5977 7.32715C13.0117 7.32715 13.3477 7.66315 13.3477 8.07715V15.4041C13.3477 15.8181 13.0117 16.1541 12.5977 16.1541Z" fill="#00A2D4"/>
<path fill-rule="evenodd" clip-rule="evenodd" d="M16.2646 12.4902H8.93164C8.51664 12.4902 8.18164 12.1542 8.18164 11.7402C8.18164 11.3262 8.51664 10.9902 8.93164 10.9902H16.2646C16.6786 10.9902 17.0146 11.3262 17.0146 11.7402C17.0146 12.1542 16.6786 12.4902 16.2646 12.4902Z" fill="#00A2D4"/>
<path fill-rule="evenodd" clip-rule="evenodd" d="M7.91166 2.5C5.13966 2.5 3.34766 4.397 3.34766 7.335V16.165C3.34766 19.103 5.13966 21 7.91166 21H17.2837C20.0567 21 21.8477 19.103 21.8477 16.165V7.335C21.8477 4.397 20.0567 2.5 17.2837 2.5H7.91166ZM17.2837 22.5H7.91166C4.28466 22.5 1.84766 19.954 1.84766 16.165V7.335C1.84766 3.546 4.28466 1 7.91166 1H17.2837C20.9107 1 23.3477 3.546 23.3477 7.335V16.165C23.3477 19.954 20.9107 22.5 17.2837 22.5Z" fill="#00A2D4"/>
</svg>
