<svg width="25" height="24" viewBox="0 0 25 24" fill="none" xmlns="http://www.w3.org/2000/svg">
<path d="M4.84766 11.7256C4.84766 11.3459 5.12981 11.0321 5.49589 10.9824L5.59766 10.9756H20.5977C21.0119 10.9756 21.3477 11.3114 21.3477 11.7256C21.3477 12.1053 21.0655 12.4191 20.6994 12.4687L20.5977 12.4756L5.59766 12.4756C5.18344 12.4756 4.84766 12.1398 4.84766 11.7256Z" fill="white"/>
<path d="M14.0196 6.23247C13.7261 5.94021 13.7251 5.46534 14.0174 5.17181C14.283 4.90497 14.6997 4.87987 14.9937 5.09709L15.078 5.16953L21.128 11.1935C21.3957 11.46 21.42 11.8781 21.201 12.1722L21.1281 12.2564L15.0781 18.2814C14.7846 18.5737 14.3097 18.5727 14.0174 18.2792C13.7517 18.0124 13.7283 17.5957 13.9468 17.3025L14.0196 17.2186L19.5356 11.7247L14.0196 6.23247Z" fill="white"/>
</svg>
