<svg width="25" height="24" viewBox="0 0 25 24" fill="none" xmlns="http://www.w3.org/2000/svg">
<mask id="mask0_5328_8883" style="mask-type:luminance" maskUnits="userSpaceOnUse" x="1" y="1" width="22" height="22">
<path fill-rule="evenodd" clip-rule="evenodd" d="M1.34766 1H22.8407V22.4938H1.34766V1Z" fill="white"/>
</mask>
<g mask="url(#mask0_5328_8883)">
<path fill-rule="evenodd" clip-rule="evenodd" d="M6.45609 19.675C7.03609 19.675 7.58309 19.895 8.16209 20.128C11.7091 21.768 15.9041 21.022 18.6371 18.29C22.2431 14.682 22.2431 8.813 18.6371 5.207C16.8911 3.461 14.5691 2.5 12.0971 2.5C9.62409 2.5 7.30109 3.462 5.55609 5.208C2.82209 7.94 2.07809 12.135 3.70309 15.648C3.93709 16.227 4.16309 16.791 4.16309 17.377C4.16309 17.962 3.96209 18.551 3.78509 19.071C3.63909 19.499 3.41809 20.145 3.56009 20.287C3.69909 20.431 4.34909 20.204 4.77809 20.057C5.29309 19.881 5.87709 19.679 6.45609 19.675ZM12.0721 22.494C10.5441 22.494 9.00609 22.171 7.56709 21.505C7.14309 21.335 6.74609 21.175 6.46109 21.175C6.13309 21.177 5.69209 21.329 5.26609 21.476C4.39209 21.776 3.30409 22.15 2.49909 21.348C1.69709 20.545 2.06709 19.46 2.36509 18.587C2.51209 18.157 2.66309 17.713 2.66309 17.377C2.66309 17.101 2.53009 16.749 2.32609 16.242C0.453093 12.197 1.31909 7.322 4.49609 4.147C6.52409 2.118 9.22309 1 12.0961 1C14.9691 1 17.6691 2.117 19.6971 4.146C23.8891 8.338 23.8891 15.158 19.6971 19.35C17.6421 21.406 14.8751 22.494 12.0721 22.494Z" fill="#00A2D4"/>
</g>
<path fill-rule="evenodd" clip-rule="evenodd" d="M16.0431 13.1631C15.4911 13.1631 15.0391 12.7161 15.0391 12.1631C15.0391 11.6101 15.4821 11.1631 16.0341 11.1631H16.0431C16.5951 11.1631 17.0431 11.6101 17.0431 12.1631C17.0431 12.7161 16.5951 13.1631 16.0431 13.1631Z" fill="#00A2D4"/>
<path fill-rule="evenodd" clip-rule="evenodd" d="M12.0352 13.1631C11.4832 13.1631 11.0312 12.7161 11.0312 12.1631C11.0312 11.6101 11.4733 11.1631 12.0263 11.1631H12.0352C12.5872 11.1631 13.0352 11.6101 13.0352 12.1631C13.0352 12.7161 12.5872 13.1631 12.0352 13.1631Z" fill="#00A2D4"/>
<path fill-rule="evenodd" clip-rule="evenodd" d="M8.02548 13.1631C7.47348 13.1631 7.02148 12.7161 7.02148 12.1631C7.02148 11.6101 7.46448 11.1631 8.01648 11.1631H8.02548C8.57748 11.1631 9.02548 11.6101 9.02548 12.1631C9.02548 12.7161 8.57748 13.1631 8.02548 13.1631Z" fill="#00A2D4"/>
</svg>
