<svg width="24" height="25" viewBox="0 0 24 25" fill="none" xmlns="http://www.w3.org/2000/svg">
<path fillRule="evenodd" clipRule="evenodd" d="M11.75 16.6541C11.336 16.6541 11 16.3181 11 15.9041V8.57715C11 8.16315 11.336 7.82715 11.75 7.82715C12.164 7.82715 12.5 8.16315 12.5 8.57715V15.9041C12.5 16.3181 12.164 16.6541 11.75 16.6541Z" fill="#00A2D4"/>
<path fillRule="evenodd" clipRule="evenodd" d="M15.417 12.9902H8.08398C7.66898 12.9902 7.33398 12.6542 7.33398 12.2402C7.33398 11.8262 7.66898 11.4902 8.08398 11.4902H15.417C15.831 11.4902 16.167 11.8262 16.167 12.2402C16.167 12.6542 15.831 12.9902 15.417 12.9902Z" fill="#00A2D4"/>
<path fillRule="evenodd" clipRule="evenodd" d="M7.064 3C4.292 3 2.5 4.897 2.5 7.835V16.665C2.5 19.603 4.292 21.5 7.064 21.5H16.436C19.209 21.5 21 19.603 21 16.665V7.835C21 4.897 19.209 3 16.436 3H7.064ZM16.436 23H7.064C3.437 23 1 20.454 1 16.665V7.835C1 4.046 3.437 1.5 7.064 1.5H16.436C20.063 1.5 22.5 4.046 22.5 7.835V16.665C22.5 20.454 20.063 23 16.436 23Z" fill="#00A2D4"/>
</svg>
