<svg width="24" height="24" viewBox="0 0 24 24" fill="none" xmlns="http://www.w3.org/2000/svg">
<path fillRule="evenodd" clipRule="evenodd" d="M12.2464 22.0001C10.8914 22.0001 9.57035 21.9851 8.26335 21.9581C6.59135 21.9251 5.43435 20.8411 5.24535 19.1291C4.93035 16.2891 4.39135 9.59515 4.38635 9.52815C4.35235 9.11515 4.66035 8.75315 5.07335 8.72015C5.48035 8.70915 5.84835 8.99515 5.88135 9.40715C5.88635 9.47515 6.42435 16.1461 6.73635 18.9641C6.84335 19.9371 7.36835 20.4391 8.29435 20.4581C10.7944 20.5111 13.3454 20.5141 16.0954 20.4641C17.0794 20.4451 17.6114 19.9531 17.7214 18.9571C18.0314 16.1631 18.5714 9.47515 18.5774 9.40715C18.6104 8.99515 18.9754 8.70715 19.3844 8.72015C19.7974 8.75415 20.1054 9.11515 20.0724 9.52815C20.0664 9.59615 19.5244 16.3071 19.2124 19.1221C19.0184 20.8691 17.8644 21.9321 16.1224 21.9641C14.7894 21.9871 13.5034 22.0001 12.2464 22.0001" fill="#00A2D4"/>
<path fillRule="evenodd" clipRule="evenodd" d="M20.708 6.98926H3.75C3.336 6.98926 3 6.65326 3 6.23926C3 5.82526 3.336 5.48926 3.75 5.48926H20.708C21.122 5.48926 21.458 5.82526 21.458 6.23926C21.458 6.65326 21.122 6.98926 20.708 6.98926" fill="#00A2D4"/>
<path fillRule="evenodd" clipRule="evenodd" d="M17.4406 6.989C16.3026 6.989 15.3146 6.178 15.0906 5.062L14.8476 3.846C14.7966 3.661 14.5856 3.5 14.3456 3.5H10.1126C9.87258 3.5 9.66158 3.661 9.60058 3.892L9.36758 5.062C9.14458 6.178 8.15558 6.989 7.01758 6.989C6.60358 6.989 6.26758 6.653 6.26758 6.239C6.26758 5.825 6.60358 5.489 7.01758 5.489C7.44358 5.489 7.81358 5.185 7.89758 4.767L8.14058 3.551C8.38758 2.619 9.19458 2 10.1126 2H14.3456C15.2636 2 16.0706 2.619 16.3076 3.506L16.5616 4.767C16.6446 5.185 17.0146 5.489 17.4406 5.489C17.8546 5.489 18.1906 5.825 18.1906 6.239C18.1906 6.653 17.8546 6.989 17.4406 6.989" fill="#00A2D4"/>
</svg>
