<svg width="17" height="15" viewBox="0 0 17 15" fill="none" xmlns="http://www.w3.org/2000/svg">
<path d="M0 7.72559C0 7.34589 0.282154 7.0321 0.648229 6.98243L0.75 6.97559L15.75 6.97559C16.1642 6.97559 16.5 7.31137 16.5 7.72559C16.5 8.10528 16.2178 8.41908 15.8518 8.46874L15.75 8.47559L0.75 8.47559C0.335786 8.47559 0 8.1398 0 7.72559Z" fill="white"/>
<path d="M9.17101 2.23247C8.87749 1.94021 8.87646 1.46534 9.16872 1.17181C9.43442 0.904974 9.85103 0.879871 10.1451 1.09709L10.2294 1.16953L16.2794 7.19353C16.547 7.46002 16.5714 7.87813 16.3524 8.1722L16.2794 8.25643L10.2294 14.2814C9.93593 14.5737 9.46105 14.5727 9.16877 14.2792C8.90305 14.0124 8.87971 13.5957 9.09817 13.3025L9.17096 13.2186L14.687 7.7247L9.17101 2.23247Z" fill="white"/>
</svg>
