<svg width="25" height="25" viewBox="0 0 25 25" fill="none" xmlns="http://www.w3.org/2000/svg">
<path d="M6.48579 6.09858L6.48535 15.7207C6.48535 17.7089 8.03266 19.3358 9.98879 19.4627L10.2354 19.4707L16.8569 19.4718C16.5478 20.3451 15.7146 20.9707 14.7354 20.9707H9.48535C7.00007 20.9707 4.98535 18.956 4.98535 16.4707V8.2207C4.98535 7.24088 5.61167 6.40733 6.48579 6.09858ZM17.7354 2.9707C18.978 2.9707 19.9854 3.97806 19.9854 5.2207V15.7207C19.9854 16.9633 18.978 17.9707 17.7354 17.9707H10.2354C8.99271 17.9707 7.98535 16.9633 7.98535 15.7207V5.2207C7.98535 3.97806 8.99271 2.9707 10.2354 2.9707H17.7354ZM17.7354 4.4707H10.2354C9.82114 4.4707 9.48535 4.80649 9.48535 5.2207V15.7207C9.48535 16.1349 9.82114 16.4707 10.2354 16.4707H17.7354C18.1496 16.4707 18.4854 16.1349 18.4854 15.7207V5.2207C18.4854 4.80649 18.1496 4.4707 17.7354 4.4707Z" fill="#242627"/>
</svg>
