<svg width="64" height="64" viewBox="0 0 64 64" fill="none" xmlns="http://www.w3.org/2000/svg">
<rect width="64" height="64" rx="32" fill="#242627"/>
<g clipPath="url(#clip0_3147_41143)">
<path d="M39.8308 28.2653C39.5682 28.2774 39.3043 28.276 39.0413 28.2658C38.9009 28.2604 38.8532 28.2961 38.8543 28.4472C38.8615 29.4148 38.8583 30.3825 38.8569 31.3501C38.8568 31.4023 38.8778 31.463 38.8228 31.5144C38.6964 31.3933 38.5908 31.261 38.4547 31.1605C37.5578 30.4981 36.1839 30.7229 35.5126 31.6492C34.997 32.3605 34.9005 33.1537 35.1139 33.9871C35.42 35.182 36.4856 35.8726 37.6924 35.6632C38.1883 35.5773 38.5949 35.3278 38.9045 34.9041C38.9045 35.0887 38.9082 35.2735 38.903 35.4581C38.9004 35.5478 38.9312 35.5776 39.0209 35.5761C39.3104 35.5715 39.6 35.5705 39.8896 35.5764C39.9906 35.5785 40.0154 35.5388 40.0118 35.4464C40.0062 35.2932 40.0104 35.1397 40.0104 34.9864C40.0104 32.808 40.0114 30.6296 40.0134 28.4511C40.0137 28.3077 39.9789 28.2584 39.8308 28.2653ZM38.5072 34.2718C38.136 34.6727 37.681 34.8104 37.1607 34.6644C36.6452 34.5198 36.3663 34.1402 36.2431 33.6321C36.2125 33.498 36.1989 33.3605 36.2026 33.2231C36.2093 32.7277 36.3635 32.2949 36.776 31.9974C37.2583 31.6495 37.9043 31.6927 38.3692 32.0823C39.0004 32.6117 39.0666 33.6681 38.5072 34.2718Z" fill="white"/>
<path d="M45.3113 32.7441C45.2177 32.152 44.9969 31.6261 44.518 31.2419C44.0543 30.8699 43.5105 30.7502 42.9321 30.7878C42.1982 30.8356 41.5785 31.1245 41.1306 31.7271C40.7273 32.2697 40.6021 32.8888 40.663 33.554C40.7344 34.3305 41.0769 34.9435 41.7538 35.3434C42.3614 35.7023 43.0212 35.7704 43.7055 35.65C44.2505 35.5541 44.6964 35.2852 45.0503 34.8576C45.1223 34.7706 45.1279 34.7168 45.0295 34.6442C44.8345 34.5005 44.6452 34.3493 44.4615 34.1905C44.3863 34.1256 44.3508 34.1313 44.2889 34.2054C43.9001 34.671 43.3927 34.7901 42.822 34.6795C42.3144 34.5811 41.9109 34.1852 41.8308 33.7475C41.8107 33.6375 41.8275 33.6036 41.9471 33.605C42.4892 33.6115 43.0316 33.6078 43.5737 33.6078C44.1001 33.6078 44.6268 33.5993 45.1529 33.6127C45.3231 33.6171 45.3556 33.559 45.3479 33.4078C45.3367 33.1866 45.3463 32.9645 45.3113 32.7441ZM43.9897 32.7822C43.6532 32.7823 43.3167 32.7823 42.9801 32.7822C42.6331 32.7822 42.286 32.7785 41.9391 32.7844C41.8309 32.7863 41.8117 32.7581 41.8292 32.6509C41.9242 32.0707 42.4628 31.6638 43.1367 31.673C43.6732 31.6803 44.0452 31.9829 44.1583 32.5042C44.1641 32.5298 44.1687 32.5557 44.1716 32.5819C44.1932 32.7819 44.1929 32.782 43.9897 32.7822Z" fill="white"/>
<path d="M34.4091 32.4729C34.3675 31.6608 33.8845 31.0699 33.1017 30.8671C32.6933 30.7612 32.279 30.7531 31.8658 30.8213C31.3705 30.903 30.9169 31.0885 30.5219 31.4083C30.4257 31.4862 30.3835 31.5433 30.4903 31.6523C30.6291 31.7967 30.759 31.9496 30.8792 32.11C30.9572 32.2125 31.0132 32.2184 31.1149 32.1346C31.4729 31.8397 31.8837 31.6859 32.3523 31.7044C32.9358 31.7277 33.2769 32.0258 33.3249 32.5529C33.3331 32.6412 33.3219 32.6906 33.2135 32.6882C32.845 32.6803 32.4777 32.7082 32.1123 32.7512C31.5917 32.8121 31.0947 32.9372 30.645 33.2334C29.9571 33.6866 30.0444 34.7276 30.4521 35.1522C31.0783 35.8047 32.3509 35.895 33.0412 35.3115C33.1443 35.2246 33.227 35.1181 33.3379 34.9808C33.3379 35.1672 33.3422 35.3127 33.3363 35.4579C33.3327 35.5475 33.3635 35.5774 33.4532 35.5759C33.7373 35.5713 34.0214 35.5714 34.3056 35.5761C34.3996 35.5777 34.4352 35.5515 34.4337 35.4521C34.419 34.459 34.4598 33.4656 34.4091 32.4729ZM33.3067 33.8008C33.2698 34.3881 32.8472 34.7796 32.2178 34.8097C32.0111 34.8194 31.8073 34.8039 31.6174 34.714C31.2172 34.5246 31.1751 34.0224 31.535 33.7622C31.7823 33.5836 32.0693 33.5208 32.3622 33.4845C32.5649 33.4594 32.7704 33.4558 32.876 33.4489C33.3289 33.4473 33.3289 33.4473 33.3067 33.8008Z" fill="white"/>
<path d="M27.4522 33.4611C27.4522 32.9114 27.4507 32.3617 27.4536 31.812C27.454 31.7195 27.4441 31.6683 27.3287 31.669C26.5339 31.6738 25.7391 31.6727 24.9444 31.67C24.855 31.6697 24.8251 31.6984 24.8269 31.788C24.8316 32.031 24.834 32.2744 24.8261 32.5173C24.8222 32.6312 24.8621 32.6597 24.9702 32.658C25.3544 32.6522 25.7386 32.6581 26.1229 32.6542C26.2177 32.6531 26.2642 32.6686 26.2629 32.7813C26.2572 33.2887 26.2586 33.7961 26.2624 34.3035C26.263 34.387 26.2334 34.4258 26.1574 34.4514C25.5738 34.6492 24.9764 34.717 24.3703 34.6044C23.6056 34.4623 23.0466 34.036 22.7177 33.3214C22.6798 33.239 22.6502 33.2268 22.5707 33.2785C22.2616 33.4791 21.9481 33.6732 21.6341 33.8662C21.5649 33.9088 21.5554 33.9467 21.5975 34.0171C21.7229 34.2259 21.8595 34.4265 22.0256 34.6043C22.6704 35.2948 23.4733 35.6558 24.405 35.7382C25.4118 35.8271 26.3862 35.6965 27.3201 35.2938C27.4253 35.2484 27.4556 35.1882 27.4545 35.0784C27.4494 34.5392 27.4522 34.0002 27.4522 33.4611Z" fill="white"/>
<path d="M29.5508 28.4328C29.5494 28.4064 29.5495 28.3799 29.551 28.3536C29.5616 28.2613 29.5173 28.2363 29.4314 28.2374C29.1419 28.2411 28.8522 28.2459 28.563 28.2357C28.4278 28.2309 28.3978 28.2773 28.3982 28.406C28.4029 29.5741 28.401 30.742 28.401 31.9101C28.401 33.0677 28.4051 34.2252 28.3965 35.3826C28.3953 35.5505 28.446 35.5857 28.5995 35.5782C28.8569 35.5658 29.1156 35.5655 29.3729 35.5784C29.5214 35.5858 29.554 35.536 29.5538 35.3936C29.5495 33.0733 29.5485 30.753 29.5508 28.4328Z" fill="white"/>
<path d="M22.5064 31.1427C22.5992 31.202 22.6224 31.1764 22.657 31.0877C23.3379 29.34 25.4563 29.2513 26.5157 30.2343C26.5868 30.3003 26.6182 30.2879 26.6743 30.2255C26.8506 30.0292 27.0317 29.8373 27.2117 29.6445C27.4604 29.3781 27.4624 29.3758 27.1518 29.1688C26.4526 28.7029 25.6697 28.5386 24.7121 28.5254C24.5748 28.5181 24.3082 28.5518 24.0442 28.5983C23.8735 28.6287 23.705 28.6708 23.54 28.7242C22.6556 29.0102 21.9704 29.5426 21.5281 30.3748C21.4738 30.4767 21.4853 30.5266 21.5876 30.5855C21.898 30.764 22.2043 30.9497 22.5064 31.1427Z" fill="white"/>
<path d="M47.9923 31.9219C47.9768 31.6482 47.9581 31.3746 47.9341 31.1015C47.9293 31.0446 47.9776 30.9567 47.8637 30.94C47.7637 30.9254 47.7272 30.9759 47.6979 31.0627C47.6163 31.306 47.5256 31.5459 47.4261 31.8223C47.3264 31.5332 47.2357 31.2806 47.1528 31.0256C47.1237 30.9357 47.0624 30.9362 46.9917 30.9418C46.9101 30.9481 46.9301 31.0133 46.9259 31.0616C46.9144 31.1929 46.9056 31.3245 46.8963 31.456C46.8845 31.6243 46.8731 31.7927 46.8627 31.9611C46.8603 32.0026 46.8541 32.048 46.9189 32.0514C46.9747 32.0545 46.9931 32.0238 46.9979 31.9762C47.0035 31.9236 47.0112 31.8715 47.0144 31.819C47.0269 31.602 47.0384 31.3847 47.0523 31.1304C47.1536 31.4315 47.2424 31.695 47.3307 31.9586C47.3443 31.9986 47.3515 32.0423 47.4056 32.0476C47.4685 32.0538 47.4851 32.0087 47.5013 31.9626C47.5157 31.9228 47.5312 31.8837 47.5456 31.844C47.6264 31.6178 47.7072 31.3916 47.788 31.1653C47.8221 31.4244 47.8328 31.6774 47.8448 31.93C47.8477 31.987 47.8419 32.0538 47.9301 32.051C48.0312 32.048 47.9952 31.9699 47.9923 31.9219Z" fill="white"/>
<path d="M46.6783 30.9416C46.4628 30.9413 46.2474 30.9413 46.0319 30.9416C45.9903 30.9417 45.9447 30.9368 45.9434 31.0012C45.9423 31.0635 45.9842 31.0619 46.0279 31.0665C46.2852 31.094 46.285 31.0946 46.285 31.3578C46.285 31.4211 46.285 31.4844 46.2852 31.5477C46.2852 31.6796 46.2844 31.8116 46.2855 31.9435C46.2858 31.9948 46.2746 32.056 46.3588 32.0515C46.4327 32.0475 46.4196 31.9917 46.4199 31.947C46.4212 31.7465 46.4207 31.546 46.4207 31.3454C46.4207 31.0911 46.4204 31.0907 46.6743 31.0664C46.7164 31.0622 46.7607 31.0677 46.7628 31.0051C46.765 30.9416 46.7215 30.9417 46.6783 30.9416Z" fill="white"/>
<path d="M20.6126 30.3184C21.7158 30.9627 22.7953 31.5931 23.8977 32.2371C22.8011 32.8779 21.7206 33.5091 20.6126 34.1565C20.6126 34.0325 20.6087 33.9305 20.6137 33.8292C20.6191 33.7225 20.5818 33.6715 20.4687 33.6794C20.3742 33.6853 20.2793 33.6851 20.1848 33.6791C20.0361 33.6706 19.8962 33.6055 19.7938 33.497C19.6913 33.3885 19.6339 33.2448 19.6334 33.0953C19.6334 32.9458 19.6901 32.802 19.792 32.693C19.894 32.5841 20.0334 32.5183 20.182 32.509C20.2764 32.5033 20.3715 32.5044 20.466 32.5078C20.5413 32.5108 20.5884 32.4928 20.5847 32.4046C20.5808 32.3096 20.5337 32.2825 20.4426 32.2831C19.9585 32.2867 19.4744 32.2887 18.9904 32.2834C18.576 32.2789 18.3007 31.8872 18.4345 31.5036C18.5164 31.2685 18.73 31.1138 18.9907 31.112C19.4485 31.1088 19.9063 31.1115 20.3641 31.1108C20.5903 31.1104 20.6126 31.0866 20.6126 30.8575V30.3184Z" fill="#FF6F00"/>
<path d="M18.2226 33.4268C18.0389 33.4268 17.8549 33.4306 17.6713 33.4258C17.3869 33.4186 17.1715 33.199 17.17 32.9222C17.1691 32.8561 17.1813 32.7905 17.2058 32.7291C17.2303 32.6677 17.2667 32.6118 17.3128 32.5645C17.3589 32.5173 17.4138 32.4797 17.4744 32.4538C17.5351 32.428 17.6002 32.4144 17.666 32.4139C18.0387 32.4077 18.4116 32.4076 18.7845 32.4135C18.8504 32.4134 18.9156 32.4264 18.9765 32.4516C19.0373 32.4768 19.0926 32.5139 19.1392 32.5606C19.1858 32.6074 19.2227 32.6629 19.2479 32.724C19.273 32.7851 19.2859 32.8506 19.2858 32.9167C19.2872 33.1999 19.0678 33.4203 18.7741 33.426C18.5903 33.4298 18.4065 33.4268 18.2226 33.4268Z" fill="#FF6F00"/>
<path d="M16.7904 32.2837C16.6854 32.2839 16.5802 32.2888 16.4756 32.2828C16.3458 32.2755 16.2238 32.218 16.1352 32.1225C16.0466 32.027 15.9982 31.9008 16.0001 31.7702C16.0009 31.6423 16.0505 31.5195 16.1385 31.427C16.2266 31.3345 16.3465 31.2792 16.4737 31.2725C16.6831 31.2633 16.8937 31.2634 17.1033 31.2724C17.2333 31.2788 17.3557 31.3358 17.4445 31.4314C17.5333 31.5269 17.5815 31.6535 17.5788 31.7842C17.5772 31.912 17.5274 32.0344 17.4396 32.1268C17.3517 32.2193 17.2323 32.275 17.1053 32.2827C17.0006 32.2891 16.8955 32.2837 16.7904 32.2837Z" fill="#FF6F00"/>
</g>
<defs>
<clipPath id="clip0_3147_41143">
<rect width="32" height="8" fill="white" transform="translate(16 28)"/>
</clipPath>
</defs>
</svg>
