<svg width="25" height="25" viewBox="0 0 25 25" fill="none" xmlns="http://www.w3.org/2000/svg">
<mask id="mask0_3057_17095" style="mask-type:alpha" maskUnits="userSpaceOnUse" x="3" y="2" width="18" height="21">
<path fill-rule="evenodd" clip-rule="evenodd" d="M3.34399 2.51172H20.3967V22.3652H3.34399V2.51172Z" fill="white"/>
</mask>
<g mask="url(#mask0_3057_17095)">
<path fill-rule="evenodd" clip-rule="evenodd" d="M7.9171 4.01172C6.2601 4.01172 4.8841 5.35372 4.8451 7.00872V17.7037C4.8081 19.4167 6.1581 20.8277 7.8541 20.8657H15.9181C17.5871 20.7967 18.9091 19.4097 18.8971 17.7097V8.83972L14.2621 4.01172H7.9291H7.9171ZM7.9291 22.3657H7.8201C5.2981 22.3087 3.2901 20.2107 3.3451 17.6877V6.99072C3.4031 4.50972 5.4521 2.51172 7.9151 2.51172H7.9321H14.5821C14.7861 2.51172 14.9811 2.59472 15.1231 2.74172L20.1881 8.01872C20.3221 8.15772 20.3971 8.34472 20.3971 8.53772V17.7037C20.4151 20.2127 18.4611 22.2627 15.9481 22.3647L7.9291 22.3657Z" fill="white"/>
</g>
<path fill-rule="evenodd" clip-rule="evenodd" d="M19.6421 9.484H16.8871C15.0571 9.479 13.5691 7.987 13.5691 6.159V3.25C13.5691 2.836 13.9051 2.5 14.3191 2.5C14.7331 2.5 15.0691 2.836 15.0691 3.25V6.159C15.0691 7.163 15.8861 7.981 16.8891 7.984H19.6421C20.0561 7.984 20.3921 8.32 20.3921 8.734C20.3921 9.148 20.0561 9.484 19.6421 9.484Z" fill="white"/>
<path fill-rule="evenodd" clip-rule="evenodd" d="M14.1324 16.6074H8.73242C8.31842 16.6074 7.98242 16.2714 7.98242 15.8574C7.98242 15.4434 8.31842 15.1074 8.73242 15.1074H14.1324C14.5464 15.1074 14.8824 15.4434 14.8824 15.8574C14.8824 16.2714 14.5464 16.6074 14.1324 16.6074Z" fill="white"/>
<path fill-rule="evenodd" clip-rule="evenodd" d="M12.0874 12.8555H8.73145C8.31745 12.8555 7.98145 12.5195 7.98145 12.1055C7.98145 11.6915 8.31745 11.3555 8.73145 11.3555H12.0874C12.5014 11.3555 12.8374 11.6915 12.8374 12.1055C12.8374 12.5195 12.5014 12.8555 12.0874 12.8555Z" fill="white"/>
</svg>
